####
#
# OBJ File Generated by Meshlab
#
####
# Object icub_l_shoulder_2.obj
#
# Vertices: 66
# Faces: 64
#
####
vn 0.000000 0.000000 -6.283185
v 0.000000 0.000000 -0.029500
vn 0.000000 0.000000 -2.748905
v 0.011481 0.027716 -0.029500
vn 0.000000 0.000000 -2.748878
v 0.000000 0.030000 -0.029500
vn 0.000000 0.000000 -2.748908
v -0.011480 0.027716 -0.029500
vn 0.000000 0.000000 -2.748880
v -0.021213 0.021213 -0.029500
vn 0.000000 0.000000 -2.748908
v -0.027716 0.011480 -0.029500
vn 0.000000 0.000000 -2.748878
v -0.030000 0.000000 -0.029500
vn 0.000000 0.000000 -2.748905
v -0.027716 -0.011481 -0.029500
vn 0.000000 0.000000 -2.748883
v -0.021213 -0.021213 -0.029500
vn 0.000000 0.000000 -2.748908
v -0.011480 -0.027716 -0.029500
vn 0.000000 0.000000 -2.748877
v 0.000000 -0.030000 -0.029500
vn 0.000000 0.000000 -2.748908
v 0.011480 -0.027716 -0.029500
vn 0.000000 0.000000 -2.748883
v 0.021213 -0.021213 -0.029500
vn 0.000000 0.000000 -2.748905
v 0.027716 -0.011481 -0.029500
vn 0.000000 0.000000 -2.748878
v 0.030000 0.000000 -0.029500
vn 0.000000 0.000000 -2.748908
v 0.027716 0.011480 -0.029500
vn 0.000000 0.000000 -2.748883
v 0.021213 0.021213 -0.029500
vn 0.000000 0.000000 6.283185
v 0.000000 0.000000 0.029500
vn 0.000000 0.000000 2.748905
v 0.011481 0.027716 0.029500
vn 0.000000 0.000000 2.748882
v 0.000000 0.030000 0.029500
vn 0.000000 0.000000 2.748904
v -0.011480 0.027716 0.029500
vn 0.000000 0.000000 2.748884
v -0.021213 0.021213 0.029500
vn 0.000000 0.000000 2.748903
v -0.027716 0.011481 0.029500
vn 0.000000 0.000000 2.748882
v -0.030000 0.000000 0.029500
vn 0.000000 0.000000 2.748904
v -0.027716 -0.011480 0.029500
vn 0.000000 0.000000 2.748884
v -0.021213 -0.021213 0.029500
vn 0.000000 0.000000 2.748903
v -0.011481 -0.027716 0.029500
vn 0.000000 0.000000 2.748883
v 0.000000 -0.030000 0.029500
vn 0.000000 0.000000 2.748903
v 0.011480 -0.027716 0.029500
vn 0.000000 0.000000 2.748880
v 0.021213 -0.021213 0.029500
vn 0.000000 0.000000 2.748907
v 0.027716 -0.011481 0.029500
vn 0.000000 0.000000 2.748883
v 0.030000 0.000000 0.029500
vn 0.000000 0.000000 2.748899
v 0.027716 0.011480 0.029500
vn 0.000000 0.000000 2.748887
v 0.021213 0.021213 0.029500
vn 2.178757 2.178752 -0.000001
v 0.021213 0.021213 -0.029500
vn 2.846687 1.179138 -0.000002
v 0.027716 0.011480 -0.029500
vn 3.081223 0.000002 0.000000
v 0.030000 0.000000 -0.029500
vn 2.846685 -1.179140 -0.000001
v 0.027716 -0.011481 -0.029500
vn 2.178752 -2.178758 -0.000002
v 0.021213 -0.021213 -0.029500
vn 1.179138 -2.846687 -0.000002
v 0.011480 -0.027716 -0.029500
vn 0.000000 -3.081223 -0.000000
v 0.000000 -0.030000 -0.029500
vn -1.179139 -2.846687 -0.000000
v -0.011480 -0.027716 -0.029500
vn -2.178752 -2.178758 0.000001
v -0.021213 -0.021213 -0.029500
vn -2.846684 -1.179141 0.000000
v -0.027716 -0.011481 -0.029500
vn -3.081223 0.000001 -0.000000
v -0.030000 0.000000 -0.029500
vn -2.846687 1.179139 -0.000000
v -0.027716 0.011480 -0.029500
vn -2.178755 2.178754 0.000000
v -0.021213 0.021213 -0.029500
vn -1.179138 2.846687 -0.000001
v -0.011480 0.027716 -0.029500
vn -0.000002 3.081223 0.000000
v 0.000000 0.030000 -0.029500
vn 1.179141 2.846685 0.000000
v 0.011481 0.027716 -0.029500
vn 2.178754 2.178757 0.000000
v 0.021213 0.021213 0.029500
vn 2.846685 1.179135 -0.000002
v 0.027716 0.011480 0.029500
vn 3.081225 -0.000005 -0.000001
v 0.030000 0.000000 0.029500
vn 2.846687 -1.179137 0.000000
v 0.027716 -0.011481 0.029500
vn 2.178753 -2.178755 -0.000001
v 0.021213 -0.021213 0.029500
vn 1.179130 -2.846688 -0.000003
v 0.011480 -0.027716 0.029500
vn -0.000005 -3.081225 -0.000001
v 0.000000 -0.030000 0.029500
vn -1.179143 -2.846683 -0.000001
v -0.011481 -0.027716 0.029500
vn -2.178759 -2.178750 -0.000001
v -0.021213 -0.021213 0.029500
vn -2.846688 -1.179132 -0.000001
v -0.027716 -0.011480 0.029500
vn -3.081224 0.000004 -0.000001
v -0.030000 0.000000 0.029500
vn -2.846683 1.179143 -0.000001
v -0.027716 0.011481 0.029500
vn -2.178750 2.178759 -0.000001
v -0.021213 0.021213 0.029500
vn -1.179132 2.846688 -0.000002
v -0.011480 0.027716 0.029500
vn 0.000004 3.081224 -0.000001
v 0.000000 0.030000 0.029500
vn 1.179141 2.846685 0.000000
v 0.011481 0.027716 0.029500
# 66 vertices, 0 vertices normals

f 35//35 51//51 52//52
f 35//35 52//52 36//36
f 36//36 52//52 53//53
f 36//36 53//53 37//37
f 37//37 53//53 54//54
f 37//37 54//54 38//38
f 38//38 54//54 55//55
f 38//38 55//55 39//39
f 39//39 55//55 56//56
f 39//39 56//56 40//40
f 40//40 56//56 57//57
f 40//40 57//57 41//41
f 41//41 57//57 58//58
f 41//41 58//58 42//42
f 42//42 58//58 59//59
f 42//42 59//59 43//43
f 43//43 59//59 60//60
f 43//43 60//60 44//44
f 44//44 60//60 61//61
f 44//44 61//61 45//45
f 45//45 61//61 62//62
f 45//45 62//62 46//46
f 46//46 62//62 63//63
f 46//46 63//63 47//47
f 47//47 63//63 64//64
f 47//47 64//64 48//48
f 48//48 64//64 65//65
f 48//48 65//65 49//49
f 49//49 65//65 66//66
f 49//49 66//66 50//50
f 51//51 35//35 50//50
f 51//51 50//50 66//66
f 17//17 1//1 2//2
f 1//1 3//3 2//2
f 1//1 4//4 3//3
f 1//1 5//5 4//4
f 1//1 6//6 5//5
f 1//1 7//7 6//6
f 1//1 8//8 7//7
f 1//1 9//9 8//8
f 1//1 10//10 9//9
f 1//1 11//11 10//10
f 1//1 12//12 11//11
f 1//1 13//13 12//12
f 1//1 14//14 13//13
f 1//1 15//15 14//14
f 1//1 16//16 15//15
f 1//1 17//17 16//16
f 18//18 34//34 19//19
f 18//18 19//19 20//20
f 18//18 20//20 21//21
f 18//18 21//21 22//22
f 18//18 22//22 23//23
f 18//18 23//23 24//24
f 18//18 24//24 25//25
f 18//18 25//25 26//26
f 18//18 26//26 27//27
f 18//18 27//27 28//28
f 18//18 28//28 29//29
f 18//18 29//29 30//30
f 18//18 30//30 31//31
f 18//18 31//31 32//32
f 18//18 32//32 33//33
f 18//18 33//33 34//34
# 64 faces, 0 coords texture

# End of File
