####
#
# OBJ File Generated by Meshlab
#
####
# Object icub_root_link.obj
#
# Vertices: 8
# Faces: 12
#
####
vn 1.570796 1.570796 -1.570796
v 0.038000 0.023500 -0.157215
vn 1.570796 -1.570796 -1.570796
v 0.038000 -0.023500 -0.157215
vn -1.570796 -1.570796 -1.570797
v -0.026000 -0.023500 -0.157215
vn -1.570796 1.570796 -1.570796
v -0.026000 0.023500 -0.157215
vn 1.570796 1.570796 1.570796
v 0.038000 0.023500 -0.042785
vn 1.570796 -1.570796 1.570796
v 0.038000 -0.023500 -0.042785
vn -1.570796 -1.570791 1.570792
v -0.026000 -0.023500 -0.042785
vn -1.570796 1.570799 1.570798
v -0.026000 0.023500 -0.042785
# 8 vertices, 0 vertices normals

f 5//5 8//8 7//7
f 5//5 7//7 6//6
f 1//1 5//5 6//6
f 1//1 6//6 2//2
f 2//2 6//6 7//7
f 2//2 7//7 3//3
f 3//3 7//7 8//8
f 3//3 8//8 4//4
f 5//5 1//1 4//4
f 5//5 4//4 8//8
f 1//1 2//2 3//3
f 1//1 3//3 4//4
# 12 faces, 0 coords texture

# End of File
