####
#
# OBJ File Generated by Meshlab
#
####
# Object icub_simple_collision_l_hip_2.obj
#
# Vertices: 16
# Faces: 28
#
####
vn 1.110722 2.681519 -2.356200
v 0.011863 0.028640 -0.037500
vn -2.681516 1.110721 -2.356192
v -0.028640 0.011863 -0.037500
vn 1.110720 -2.681517 -2.356193
v 0.011863 -0.028640 -0.037500
vn 1.110726 2.681515 2.356196
v 0.011863 0.028640 0.037500
vn 1.110716 -2.681517 2.356193
v 0.011863 -0.028640 0.037500
vn 2.681519 1.110715 2.356196
v 0.028640 0.011863 0.037500
vn 2.681515 1.110722 -2.356193
v 0.028640 0.011863 -0.037500
vn 2.681517 -1.110721 -2.356193
v 0.028640 -0.011863 -0.037500
vn -1.110720 -2.681517 -2.356193
v -0.011863 -0.028640 -0.037500
vn -2.681517 -1.110720 -2.356193
v -0.028640 -0.011863 -0.037500
vn -1.110718 2.681516 -2.356190
v -0.011863 0.028640 -0.037500
vn 2.681517 -1.110725 2.356199
v 0.028640 -0.011863 0.037500
vn -1.110727 -2.681515 2.356195
v -0.011863 -0.028640 0.037500
vn -2.681519 -1.110715 2.356194
v -0.028640 -0.011863 0.037500
vn -2.681513 1.110729 2.356194
v -0.028640 0.011863 0.037500
vn -1.110713 2.681521 2.356196
v -0.011863 0.028640 0.037500
# 16 vertices, 0 vertices normals

f 11//11 1//1 2//2
f 2//2 1//1 7//7
f 10//10 2//2 7//7
f 10//10 7//7 8//8
f 10//10 8//8 9//9
f 8//8 3//3 9//9
f 4//4 1//1 11//11
f 4//4 11//11 16//16
f 16//16 11//11 2//2
f 16//16 2//2 15//15
f 4//4 16//16 15//15
f 6//6 4//4 15//15
f 6//6 15//15 14//14
f 6//6 14//14 12//12
f 14//14 13//13 12//12
f 13//13 5//5 12//12
f 14//14 10//10 9//9
f 14//14 9//9 13//13
f 6//6 12//12 8//8
f 6//6 8//8 7//7
f 12//12 5//5 3//3
f 12//12 3//3 8//8
f 13//13 9//9 3//3
f 13//13 3//3 5//5
f 15//15 2//2 10//10
f 15//15 10//10 14//14
f 7//7 1//1 4//4
f 7//7 4//4 6//6
# 28 faces, 0 coords texture

# End of File
