####
#
# OBJ File Generated by Meshlab
#
####
# Object icub_simple_collision_r_shank.obj
#
# Vertices: 112
# Faces: 169
#
####
vn 1.159407 0.235109 -6.102356
v 0.017789 0.001394 -0.042623
vn 4.180522 -0.338738 -4.158678
v 0.042299 -0.064857 -0.030689
vn 0.182393 0.196721 -4.516072
v -0.000251 0.001634 -0.043925
vn 0.404629 -0.142935 -2.640092
v 0.010369 -0.186128 -0.040258
vn 1.650747 -0.224005 -5.948155
v 0.016786 -0.127371 -0.042425
vn 0.192093 -0.077170 -6.211877
v -0.000335 -0.092396 -0.045571
vn -0.002869 -0.126235 -2.817805
v -0.000502 -0.189885 -0.041008
vn 6.031144 -0.650205 -1.286666
v 0.046221 -0.113693 -0.010615
vn 2.990396 -0.461069 -0.879997
v 0.036627 -0.170000 -0.017379
vn 5.234641 -0.630922 -3.137787
v 0.039049 -0.127586 -0.026464
vn 6.134152 -1.012177 0.050005
v 0.039574 -0.165980 0.000002
vn 3.111166 -0.557717 0.026255
v 0.038853 -0.170000 -0.000020
vn 6.222485 -0.723815 -0.010040
v 0.046914 -0.113504 -0.000004
vn 2.959022 -0.487369 0.966981
v 0.036439 -0.170000 0.016493
vn 2.672888 -0.375084 -1.793869
v 0.031641 -0.170000 -0.028167
vn 3.572915 -0.367487 -4.993784
v 0.029817 -0.127477 -0.036344
vn 2.395810 -0.323588 -2.463705
v 0.027280 -0.170648 -0.033141
vn 1.556826 -0.274669 -3.141069
v 0.022622 -0.173163 -0.036788
vn 2.170632 -0.094399 -5.821904
v 0.036696 -0.002076 -0.037340
vn 4.139963 -0.658105 -4.603312
v 0.044293 -0.027391 -0.030851
vn 5.422821 -1.054787 -2.893620
v 0.049770 -0.034719 -0.021850
vn 5.980965 -1.408172 -1.063376
v 0.053642 -0.035956 -0.009606
vn 6.048852 -1.468571 0.437512
v 0.053948 -0.036179 0.005213
vn 0.032947 -0.440706 6.171119
v -0.000322 -0.100866 0.044999
vn 1.511067 0.190734 5.962668
v 0.021049 -0.002075 0.048115
vn 3.128036 -0.479844 5.040686
v 0.032053 -0.064854 0.040457
vn 1.514037 -0.598703 5.975552
v 0.016536 -0.127469 0.040936
vn 0.346129 -0.258155 2.636301
v 0.010354 -0.186164 0.035690
vn 3.440530 -0.652378 5.065818
v 0.029556 -0.127557 0.035324
vn 1.323730 -0.344054 3.232771
v 0.022606 -0.173188 0.033313
vn -0.040480 -0.281726 2.814165
v -0.000502 -0.189888 0.036041
vn 6.033533 -0.716323 1.254060
v 0.046173 -0.114408 0.010559
vn 5.124858 -0.696480 3.271106
v 0.038882 -0.127640 0.025986
vn 2.267707 -0.440070 2.593848
v 0.027229 -0.170664 0.030177
vn 2.594408 -0.456610 1.912301
v 0.031641 -0.170000 0.025695
vn 5.617607 -1.484387 2.230053
v 0.051649 -0.035433 0.019086
vn 3.665007 -0.666975 5.033144
v 0.039942 -0.026284 0.037783
vn 2.632323 0.077311 5.659736
v 0.035314 -0.002075 0.042272
vn 0.088121 0.068513 4.614828
v -0.000506 -0.002074 0.050526
vn 4.788752 -1.295463 3.774665
v 0.045593 -0.032288 0.031317
vn 5.840968 0.933180 1.373089
v 0.062841 0.011002 0.012035
vn 2.945270 1.000291 0.791496
v 0.056170 0.030042 0.013332
vn 2.894947 0.977259 -0.996434
v 0.055874 0.030050 -0.012910
vn 6.007624 0.825577 -0.121613
v 0.064308 0.009781 -0.000011
vn 3.040096 1.013624 -0.052390
v 0.057661 0.030000 -0.000000
vn 5.121071 0.774288 3.070979
v 0.058433 0.010850 0.023625
vn 2.499473 0.852717 1.806475
v 0.051088 0.030185 0.025312
vn 5.287126 -1.000003 2.752357
v 0.059092 -0.013162 0.021458
vn 5.842680 -1.140020 1.204510
v 0.062750 -0.012878 0.010772
vn 5.679521 0.909419 -1.739126
v 0.062406 0.010981 -0.012404
vn 3.978303 -0.627670 4.552179
v 0.049251 -0.012527 0.034053
vn 3.645041 0.610829 4.822115
v 0.047358 0.010658 0.035723
vn 5.910983 -1.311951 -0.144097
v 0.063622 -0.013450 -0.000005
vn 5.725169 -1.114133 -1.464026
v 0.062431 -0.012857 -0.011030
vn 1.508788 0.482276 2.720747
v 0.037647 0.030563 0.037989
vn 0.712155 0.360364 3.043675
v 0.020442 0.031047 0.044238
vn 0.147999 0.200621 1.549782
v 0.000000 0.031623 0.046116
vn 4.712744 0.754845 -3.674169
v 0.056593 0.010821 -0.023648
vn 2.226327 0.776334 -2.143515
v 0.048851 0.030248 -0.025344
vn 3.605395 -0.669997 -4.873797
v 0.048982 -0.012513 -0.030627
vn 4.980146 -0.938657 -3.287902
v 0.057733 -0.013005 -0.021553
vn 3.126652 0.562211 -5.253133
v 0.044777 0.010603 -0.033433
vn 0.533414 0.267539 -3.086854
v 0.017921 0.031118 -0.039878
vn 0.111836 0.142941 -1.546998
v 0.000000 0.031623 -0.041116
vn 1.183379 0.389261 -2.887316
v 0.033925 0.030668 -0.035603
vn -0.559129 -0.155955 -2.724496
v -0.010150 -0.190006 -0.040368
vn -1.022236 -0.379257 -2.190463
v -0.013096 -0.188938 -0.039178
vn -1.770058 -0.271321 -5.875771
v -0.015872 -0.098799 -0.043886
vn -3.946799 -0.243422 -4.504837
v -0.027359 -0.074005 -0.039379
vn 2.006716 1.665087 1.102323
v -0.016358 -0.183723 -0.038559
vn -1.614366 -0.137458 -3.181467
v -0.018750 -0.181578 -0.037504
vn -2.482904 -0.156830 0.409160
v -0.031764 -0.180035 0.011047
vn -2.488470 -0.148730 -0.356833
v -0.032088 -0.180050 -0.011073
vn -4.381309 -0.234971 0.062298
v -0.033154 -0.172030 0.000005
vn -2.874169 -0.190031 -1.162533
v -0.029254 -0.180051 -0.025044
vn -3.322136 -0.202097 -1.202456
v -0.037132 -0.059019 -0.024914
vn -3.118475 -0.162768 0.003502
v -0.039169 -0.059032 -0.000000
vn -2.499127 -0.207190 -2.220777
v -0.024142 -0.180000 -0.033110
vn -1.051107 0.025379 -2.964374
v -0.022271 -0.002076 -0.043290
vn -3.479037 -0.175662 -2.309773
v -0.032848 -0.054016 -0.032630
vn -1.007887 -0.001506 -1.206541
v -0.033896 -0.002079 -0.034008
vn -1.312619 -0.373790 6.046526
v -0.014645 -0.045725 0.047363
vn -1.597352 -0.087508 2.396972
v -0.027927 -0.002083 0.045373
vn -3.781516 -0.485133 4.478072
v -0.027219 -0.081763 0.039687
vn -2.324696 -1.190446 1.369703
v -0.014714 -0.186667 0.034434
vn -0.229347 -0.394755 2.801300
v -0.010032 -0.189998 0.035245
vn -0.464306 -0.286959 2.430532
v -0.013063 -0.189097 0.035124
vn 1.005375 0.181350 -2.582968
v -0.016306 -0.183787 0.034234
vn -1.701719 -0.346835 3.175896
v -0.018669 -0.181631 0.033443
vn -2.833057 -0.238748 1.240398
v -0.029242 -0.180055 0.022389
vn -2.388957 -0.318306 2.363654
v -0.024142 -0.180000 0.029568
vn -3.319669 -0.283366 2.247964
v -0.034115 -0.052239 0.033378
vn -1.294175 -0.048809 0.871738
v -0.035670 -0.002075 0.033878
vn -3.531039 -0.317334 1.119653
v -0.037095 -0.059041 0.025069
vn 0.000000 6.283185 0.000000
v 0.000000 0.000000 -0.000000
vn -1.612515 2.356194 -2.413302
v -0.017164 0.000000 -0.025688
vn -2.413301 2.356197 1.612520
v -0.025688 0.000000 0.017164
vn -0.566242 2.356194 2.846683
v -0.006027 0.000000 0.030301
vn 1.612516 2.356193 2.413300
v 0.017164 0.000000 0.025688
vn 2.846683 2.356192 0.566235
v 0.030301 0.000000 0.006027
vn 2.413299 2.356195 -1.612521
v 0.025688 0.000000 -0.017164
vn 0.000000 -6.283185 0.000000
v 0.000000 -0.213000 -0.000000
vn -1.612511 -2.356192 -2.413303
v -0.017164 -0.213000 -0.025688
vn -2.846684 -2.356196 -0.566245
v -0.030301 -0.213000 -0.006027
vn -0.566245 -2.356192 2.846681
v -0.006027 -0.213000 0.030301
vn 2.413302 -2.356194 -1.612516
v 0.025688 -0.213000 -0.017164
vn -2.846682 2.356191 -0.566237
v -0.030301 0.000000 -0.006027
vn 0.566240 2.356196 -2.846685
v 0.006027 0.000000 -0.030301
vn 2.846683 -2.356195 0.566242
v 0.030301 -0.213000 0.006027
vn 1.612515 -2.356195 2.413303
v 0.017164 -0.213000 0.025688
vn -2.413306 -2.356194 1.612510
v -0.025688 -0.213000 0.017164
vn 0.566245 -2.356197 -2.846684
v 0.006027 -0.213000 -0.030301
# 112 vertices, 0 vertices normals

f 64//64 1//1 3//3
f 19//19 1//1 63//63
f 2//2 1//1 19//19
f 63//63 1//1 64//64
f 5//5 18//18 4//4
f 5//5 4//4 6//6
f 6//6 4//4 7//7
f 10//10 8//8 9//9
f 25//25 26//26 38//38
f 9//9 11//11 12//12
f 10//10 9//9 15//15
f 16//16 15//15 17//17
f 10//10 15//15 16//16
f 16//16 17//17 18//18
f 16//16 18//18 5//5
f 2//2 16//16 5//5
f 1//1 2//2 5//5
f 82//82 87//87 24//24
f 80//80 69//69 76//76
f 24//24 26//26 25//25
f 27//27 28//28 29//29
f 30//30 29//29 28//28
f 31//31 28//28 27//27
f 38//38 26//26 37//37
f 14//14 12//12 11//11
f 34//34 33//33 29//29
f 35//35 33//33 34//34
f 14//14 33//33 35//35
f 2//2 19//19 20//20
f 34//34 29//29 30//30
f 2//2 20//20 21//21
f 39//39 24//24 25//25
f 8//8 2//2 21//21
f 43//43 45//45 44//44
f 46//46 42//42 47//47
f 41//41 42//42 46//46
f 48//48 41//41 46//46
f 49//49 44//44 41//41
f 48//48 49//49 41//41
f 43//43 44//44 50//50
f 40//40 48//48 51//51
f 44//44 49//49 53//53
f 50//50 44//44 53//53
f 54//54 50//50 53//53
f 46//46 51//51 48//48
f 46//46 52//52 51//51
f 46//46 47//47 52//52
f 43//43 50//50 58//58
f 54//54 61//61 50//50
f 43//43 58//58 59//59
f 58//58 50//50 61//61
f 65//65 62//62 19//19
f 59//59 58//58 62//62
f 58//58 60//60 62//62
f 68//68 66//66 69//69
f 71//71 69//69 66//66
f 71//71 66//66 70//70
f 70//70 66//66 67//67
f 24//24 87//87 31//31
f 76//76 75//75 73//73
f 76//76 73//73 77//77
f 78//78 75//75 69//69
f 94//94 77//77 74//74
f 94//94 72//72 90//90
f 78//78 69//69 71//71
f 79//79 68//68 69//69
f 94//94 74//74 72//72
f 81//81 69//69 80//80
f 79//79 69//69 81//81
f 84//84 82//82 83//83
f 76//76 69//69 75//75
f 83//83 82//82 39//39
f 85//85 87//87 88//88
f 88//88 87//87 89//89
f 26//26 24//24 27//27
f 31//31 27//27 24//24
f 84//84 91//91 89//89
f 90//90 91//91 84//84
f 84//84 89//89 87//87
f 24//24 39//39 82//82
f 82//82 84//84 87//87
f 94//94 90//90 84//84
f 65//65 19//19 63//63
f 38//38 56//56 25//25
f 92//92 83//83 93//93
f 84//84 83//83 92//92
f 52//52 55//55 38//38
f 38//38 55//55 56//56
f 95//95 97//97 98//98
f 60//60 21//21 20//20
f 54//54 22//22 21//21
f 54//54 21//21 61//61
f 61//61 21//21 60//60
f 13//13 22//22 23//23
f 49//49 23//23 53//53
f 23//23 32//32 13//13
f 41//41 45//45 42//42
f 44//44 45//45 41//41
f 58//58 61//61 60//60
f 59//59 62//62 65//65
f 54//54 53//53 23//23
f 23//23 36//36 32//32
f 37//37 51//51 38//38
f 40//40 51//51 37//37
f 52//52 47//47 55//55
f 62//62 60//60 19//19
f 52//52 38//38 51//51
f 8//8 10//10 2//2
f 37//37 26//26 40//40
f 40//40 26//26 36//36
f 39//39 56//56 57//57
f 84//84 92//92 94//94
f 77//77 73//73 74//74
f 95//95 96//96 107//107
f 95//95 108//108 96//96
f 95//95 100//100 101//101
f 102//102 103//103 112//112
f 107//107 96//96 103//103
f 107//107 103//103 104//104
f 102//102 111//111 104//104
f 102//102 105//105 111//111
f 99//99 98//98 105//105
f 99//99 105//105 110//110
f 102//102 110//110 105//105
f 3//3 6//6 79//79
f 102//102 106//106 109//109
f 102//102 112//112 106//106
f 101//101 100//100 109//109
f 101//101 109//109 106//106
f 100//100 99//99 110//110
f 100//100 110//110 109//109
f 101//101 108//108 95//95
f 106//106 112//112 108//108
f 106//106 108//108 101//101
f 7//7 66//66 68//68
f 95//95 99//99 100//100
f 98//98 97//97 111//111
f 98//98 111//111 105//105
f 95//95 98//98 99//99
f 95//95 107//107 97//97
f 97//97 107//107 104//104
f 97//97 104//104 111//111
f 102//102 104//104 103//103
f 96//96 108//108 112//112
f 96//96 112//112 103//103
f 102//102 109//109 110//110
f 6//6 1//1 5//5
f 3//3 1//1 6//6
f 6//6 68//68 79//79
f 31//31 87//87 86//86
f 7//7 68//68 6//6
f 49//49 36//36 23//23
f 60//60 20//20 19//19
f 25//25 56//56 39//39
f 2//2 10//10 16//16
f 11//11 13//13 32//32
f 48//48 36//36 49//49
f 26//26 27//27 29//29
f 40//40 36//36 48//48
f 9//9 8//8 11//11
f 54//54 23//23 22//22
f 36//36 33//33 32//32
f 14//14 11//11 32//32
f 14//14 32//32 33//33
f 8//8 22//22 13//13
f 13//13 11//11 8//8
f 8//8 21//21 22//22
f 26//26 33//33 36//36
f 26//26 29//29 33//33
# 169 faces, 0 coords texture

# End of File
