####
#
# OBJ File Generated by Meshlab
#
####
# Object icub_simple_collision_r_arm.obj
#
# Vertices: 104
# Faces: 168
#
####
vn 0.000000 0.000000 6.283185
v 0.000000 0.000000 -0.000000
vn 0.566239 2.846684 2.356194
v 0.004975 0.025010 -0.000000
vn -1.612517 2.413301 2.356193
v -0.014167 0.021203 -0.000000
vn -2.846684 0.566239 2.356195
v -0.025010 0.004975 -0.000000
vn -2.413297 -1.612520 2.356191
v -0.021203 -0.014167 -0.000000
vn -0.566236 -2.846686 2.356198
v -0.004975 -0.025010 -0.000000
vn 2.413301 1.612517 2.356193
v 0.021203 0.014167 -0.000000
vn 0.000000 0.000000 -6.283185
v 0.000000 0.000000 -0.156000
vn 0.566243 2.846686 -2.356199
v 0.004975 0.025010 -0.156000
vn -1.612513 2.413302 -2.356191
v -0.014167 0.021203 -0.156000
vn -2.413304 -1.612511 -2.356193
v -0.021203 -0.014167 -0.156000
vn -0.566242 -2.846681 -2.356191
v -0.004975 -0.025010 -0.156000
vn 1.612516 -2.413304 -2.356197
v 0.014167 -0.021203 -0.156000
vn 2.846682 -0.566243 -2.356194
v 0.025010 -0.004975 -0.156000
vn 2.846682 -0.566242 2.356192
v 0.025010 -0.004975 -0.000000
vn 1.612516 -2.413302 2.356196
v 0.014167 -0.021203 -0.000000
vn 2.413300 1.612518 -2.356194
v 0.021203 0.014167 -0.156000
vn -2.846685 0.566243 -2.356197
v -0.025010 0.004975 -0.156000
vn -5.599578 -2.062310 -1.575248
v -0.029233 -0.014839 -0.149844
vn -6.208242 -0.555899 -0.147757
v -0.032467 -0.007664 -0.140000
vn 5.210161 -1.797106 -2.633805
v 0.027473 -0.025959 -0.152188
vn -0.432181 -1.591346 1.084432
v -0.003670 -0.039610 -0.030171
vn 1.006245 -1.446974 1.334256
v 0.016236 -0.035970 -0.030056
vn -0.014489 -4.233158 1.118586
v -0.001397 -0.044988 -0.040036
vn 0.611155 -4.074004 1.379178
v 0.012889 -0.044485 -0.040847
vn 2.953397 -4.114719 2.414123
v 0.022229 -0.041554 -0.039825
vn 2.720663 -1.347871 0.976996
v 0.027915 -0.025419 -0.030000
vn 4.752803 -2.986175 2.035424
v 0.026529 -0.036078 -0.039962
vn 5.903724 -1.627879 1.049526
v 0.030485 -0.025152 -0.039202
vn 6.151733 -0.874262 -0.027147
v 0.033196 -0.013976 -0.041163
vn 2.977621 -0.453068 -0.221270
v 0.034458 -0.011138 -0.030000
vn -3.043500 0.161974 -0.050298
v -0.034943 -0.004500 -0.030000
vn -2.920813 -0.930224 0.048989
v -0.033329 -0.015682 -0.030000
vn -1.105523 -5.405148 2.105759
v -0.016127 -0.046197 -0.044802
vn -2.206158 -1.959294 1.322488
v -0.021895 -0.031448 -0.030005
vn -3.444940 -3.735524 2.116842
v -0.022271 -0.043809 -0.044792
vn -5.908368 -1.766978 0.680545
v -0.029396 -0.027699 -0.048572
vn -2.370779 -5.070757 0.422763
v -0.021479 -0.047841 -0.060000
vn -5.373692 -2.493133 0.466162
v -0.027901 -0.040405 -0.060000
vn -6.250027 -0.400217 -0.204359
v -0.032516 -0.007294 -0.060000
vn 6.235830 -0.607178 -0.092837
v 0.032420 -0.014993 -0.060000
vn 2.293036 -5.031016 0.587024
v 0.021238 -0.048086 -0.059989
vn 5.280552 -2.767895 0.387505
v 0.027747 -0.040761 -0.060004
vn -0.753198 -1.955936 -3.207066
v -0.009949 -0.037615 -0.160009
vn -2.580846 -5.073421 -0.492081
v -0.021226 -0.047774 -0.140001
vn -5.286791 -2.470088 -0.594209
v -0.027901 -0.040405 -0.140000
vn -1.367949 -3.971150 -3.713794
v -0.015349 -0.044197 -0.154425
vn -2.193877 -4.572183 -2.015293
v -0.019826 -0.046911 -0.147947
vn -3.672095 -1.909926 -4.238434
v -0.022144 -0.037624 -0.154150
vn -2.071953 -0.808433 -2.012521
v -0.018742 -0.023002 -0.160001
vn -5.356600 -0.758570 -2.774678
v -0.028039 -0.024835 -0.149484
vn -4.778448 -2.271698 -2.197652
v -0.026485 -0.039717 -0.147556
vn 6.154709 -1.008743 -0.374461
v 0.032406 -0.015216 -0.140244
vn 5.239860 -2.605259 -0.574357
v 0.027840 -0.040779 -0.140000
vn 2.209091 -1.399301 -1.823210
v 0.024800 -0.020000 -0.160000
vn 2.422622 -5.141485 -0.448654
v 0.021243 -0.047755 -0.140001
vn 0.985095 -1.954674 -2.973495
v 0.012308 -0.037630 -0.160000
vn 4.861252 -2.385092 -1.915218
v 0.026689 -0.040034 -0.147308
vn 3.663923 -1.839993 -4.130470
v 0.023161 -0.037820 -0.153888
vn 1.464579 -4.099913 -3.633911
v 0.016372 -0.044140 -0.154194
vn 2.122216 -4.699114 -1.861401
v 0.020005 -0.046982 -0.147668
vn -0.098808 -6.158115 -0.724853
v -0.007003 -0.048947 -0.140606
vn 5.619374 -1.421591 -0.704917
v 0.036288 0.001378 -0.145911
vn 2.428532 0.158081 -0.591597
v 0.033472 0.016879 -0.157923
vn -1.874590 2.371166 -0.017923
v -0.020333 0.035837 -0.103993
vn 3.139165 0.673379 0.226191
v 0.034419 0.022480 -0.138644
vn -2.695679 1.416593 0.974830
v -0.027377 0.016214 -0.030000
vn 3.190162 5.047333 0.640916
v 0.017336 0.037754 -0.060007
vn 1.185378 2.628383 1.567733
v 0.013583 0.027168 -0.030000
vn -0.061250 2.747635 1.902266
v -0.000712 0.029856 -0.030007
vn -4.479072 1.090420 -0.004340
v -0.030168 0.021836 -0.104000
vn -1.421684 2.445755 1.741598
v -0.016536 0.025607 -0.030000
vn 5.951616 0.970759 -0.396728
v 0.036275 0.016864 -0.145678
vn 6.130509 0.957799 0.132918
v 0.032696 0.010518 -0.059500
vn 0.939713 5.964663 0.630769
v 0.004836 0.042153 -0.060003
vn 6.246470 0.344638 0.287597
v 0.033055 0.007653 -0.104885
vn -3.617197 4.877116 0.452368
v -0.019057 0.036254 -0.060000
vn -6.191093 0.714440 -0.058806
v -0.032500 0.010000 -0.060000
vn 4.713469 3.393537 1.282154
v 0.026764 0.024480 -0.042360
vn 3.009805 0.598871 -0.043260
v 0.033671 0.004899 -0.030000
vn -5.268538 2.906050 0.375992
v -0.028932 0.025198 -0.059999
vn -6.144127 1.003363 0.212461
v -0.032899 0.006068 -0.043981
vn 2.787507 1.421423 0.450795
v 0.029883 0.013070 -0.030037
vn 2.882458 4.997734 1.795993
v 0.016037 0.035245 -0.046736
vn 4.554629 1.387384 0.392249
v 0.030368 0.021836 -0.104000
vn 6.140035 -1.139270 -0.059191
v 0.033189 -0.006335 -0.141413
vn -2.563263 0.010400 0.078888
v -0.032500 0.024000 -0.145000
vn -2.800653 -0.842711 -0.235589
v -0.032500 -0.007000 -0.160000
vn -2.179705 -0.000006 0.000004
v -0.032500 0.016500 -0.157990
vn 2.266672 0.667151 -0.411144
v 0.033481 0.022401 -0.152095
vn -5.560587 2.079217 0.768739
v -0.030800 0.018797 -0.044523
vn 2.905752 -0.250707 -0.567638
v 0.032500 0.003432 -0.160000
vn -1.596788 5.264489 2.168766
v -0.009679 0.038006 -0.044009
vn 0.638917 5.517256 2.230528
v 0.002332 0.039056 -0.044435
vn 5.138659 3.099646 0.474062
v 0.027963 0.026911 -0.060004
vn 0.523853 3.049732 0.010081
v 0.005633 0.042025 -0.104000
vn -1.415544 5.846839 0.524848
v -0.007680 0.041776 -0.059998
vn -3.965023 4.032239 1.440659
v -0.023656 0.029850 -0.043767
vn 3.063588 -0.483977 -0.436371
v 0.032458 -0.006999 -0.159999
vn 2.841628 0.286501 0.356505
v 0.032556 0.024000 -0.114043
vn 2.033294 2.170032 1.254928
v 0.023614 0.020711 -0.030000
vn 2.336904 2.035488 -0.024799
v 0.024638 0.031309 -0.104000
vn 1.511726 2.702663 -0.009644
v 0.016061 0.038310 -0.104000
vn -0.598264 3.020342 0.007414
v -0.005433 0.042025 -0.104000
# 104 vertices, 0 vertices normals

f 2//2 1//1 7//7
f 1//1 5//5 6//6
f 8//8 10//10 9//9
f 43//43 56//56 54//54
f 82//82 67//67 91//91
f 21//21 58//58 59//59
f 88//88 87//87 89//89
f 77//77 97//97 104//104
f 94//94 75//75 97//97
f 98//98 72//72 93//93
f 99//99 86//86 53//53
f 82//82 40//40 32//32
f 82//82 32//32 67//67
f 93//93 97//97 77//77
f 101//101 79//79 84//84
f 84//84 68//68 75//75
f 74//74 85//85 95//95
f 91//91 77//77 81//81
f 74//74 95//95 79//79
f 68//68 103//103 96//96
f 78//78 71//71 40//40
f 29//29 43//43 30//30
f 43//43 41//41 30//30
f 42//42 56//56 43//43
f 37//37 40//40 39//39
f 47//47 48//48 49//49
f 49//49 51//51 50//50
f 50//50 19//19 88//88
f 60//60 59//59 61//61
f 61//61 59//59 58//58
f 34//34 42//42 25//25
f 47//47 44//44 60//60
f 42//42 62//62 56//56
f 45//45 48//48 62//62
f 8//8 14//14 13//13
f 8//8 18//18 10//10
f 8//8 17//17 14//14
f 31//31 30//30 80//80
f 8//8 11//11 18//18
f 6//6 5//5 11//11
f 6//6 11//11 12//12
f 5//5 4//4 18//18
f 5//5 18//18 11//11
f 1//1 4//4 5//5
f 3//3 2//2 9//9
f 3//3 9//9 10//10
f 1//1 2//2 3//3
f 7//7 15//15 14//14
f 7//7 14//14 17//17
f 1//1 3//3 4//4
f 37//37 36//36 35//35
f 8//8 12//12 11//11
f 1//1 15//15 7//7
f 15//15 16//16 13//13
f 15//15 13//13 14//14
f 17//17 9//9 2//2
f 17//17 2//2 7//7
f 1//1 16//16 15//15
f 16//16 6//6 12//12
f 16//16 12//12 13//13
f 8//8 13//13 12//12
f 4//4 3//3 10//10
f 4//4 10//10 18//18
f 74//74 41//41 76//76
f 74//74 76//76 85//85
f 66//66 76//76 73//73
f 86//86 41//41 53//53
f 81//81 71//71 78//78
f 86//86 99//99 92//92
f 75//75 96//96 97//97
f 82//82 81//81 78//78
f 91//91 81//81 82//82
f 64//64 63//63 92//92
f 73//73 76//76 63//63
f 63//63 86//86 92//92
f 76//76 66//66 100//100
f 95//95 102//102 68//68
f 98//98 77//77 91//91
f 76//76 41//41 86//86
f 73//73 63//63 64//64
f 68//68 96//96 75//75
f 65//65 77//77 104//104
f 70//70 93//93 72//72
f 54//54 58//58 21//21
f 55//55 99//99 21//21
f 97//97 96//96 104//104
f 27//27 30//30 31//31
f 26//26 42//42 28//28
f 23//23 25//25 26//26
f 34//34 22//22 35//35
f 23//23 28//28 27//27
f 33//33 37//37 35//35
f 24//24 22//22 34//34
f 29//29 27//27 28//28
f 78//78 40//40 82//82
f 27//27 29//29 30//30
f 37//37 39//39 36//36
f 40//40 20//20 46//46
f 24//24 34//34 25//25
f 83//83 74//74 79//79
f 48//48 45//45 52//52
f 45//45 46//46 52//52
f 48//48 52//52 49//49
f 52//52 51//51 49//49
f 53//53 54//54 21//21
f 47//47 60//60 48//48
f 43//43 54//54 53//53
f 49//49 50//50 44//44
f 21//21 99//99 53//53
f 56//56 58//58 54//54
f 42//42 38//38 62//62
f 61//61 56//56 62//62
f 44//44 47//47 49//49
f 38//38 46//46 45//45
f 61//61 62//62 48//48
f 38//38 45//45 62//62
f 26//26 25//25 42//42
f 61//61 48//48 60//60
f 76//76 100//100 85//85
f 95//95 85//85 102//102
f 38//38 39//39 46//46
f 71//71 20//20 40//40
f 34//34 38//38 42//42
f 51//51 19//19 50//50
f 57//57 60//60 44//44
f 1//1 6//6 16//16
f 43//43 53//53 41//41
f 8//8 9//9 17//17
f 61//61 58//58 56//56
f 41//41 80//80 30//30
f 76//76 86//86 63//63
f 94//94 69//69 84//84
f 80//80 41//41 74//74
f 20//20 19//19 51//51
f 20//20 88//88 19//19
f 60//60 57//57 59//59
f 52//52 20//20 51//51
f 20//20 87//87 88//88
f 46//46 20//20 52//52
f 71//71 87//87 20//20
f 55//55 21//21 57//57
f 73//73 64//64 90//90
f 73//73 90//90 66//66
f 32//32 40//40 33//33
f 101//101 83//83 79//79
f 91//91 67//67 98//98
f 68//68 102//102 103//103
f 70//70 69//69 94//94
f 81//81 65//65 71//71
f 33//33 40//40 37//37
f 77//77 65//65 81//81
f 94//94 97//97 93//93
f 69//69 101//101 84//84
f 93//93 77//77 98//98
f 72//72 98//98 67//67
f 70//70 94//94 93//93
f 94//94 84//84 75//75
f 29//29 28//28 43//43
f 84//84 79//79 95//95
f 26//26 28//28 23//23
f 28//28 42//42 43//43
f 84//84 95//95 68//68
f 80//80 74//74 83//83
f 40//40 46//46 39//39
f 34//34 35//35 36//36
f 36//36 39//39 38//38
f 21//21 59//59 57//57
f 34//34 36//36 38//38
# 168 faces, 0 coords texture

# End of File
