####
#
# OBJ File Generated by Meshlab
#
####
# Object icub_simple_collision_r_shoulder_2.obj
#
# Vertices: 16
# Faces: 28
#
####
vn 0.000000 2.902452 -2.356193
v 0.000000 0.030000 -0.029500
vn -2.052345 2.052345 -2.356196
v -0.021213 0.021213 -0.029500
vn -2.902453 0.000000 -2.356194
v -0.030000 0.000000 -0.029500
vn 2.052345 -2.052345 -2.356197
v 0.021213 -0.021213 -0.029500
vn 2.052345 2.052345 -2.356196
v 0.021213 0.021213 -0.029500
vn 0.000002 2.902453 2.356194
v 0.000000 0.030000 0.029500
vn -2.052341 2.052348 2.356196
v -0.021213 0.021213 0.029500
vn 2.902453 0.000001 2.356194
v 0.030000 0.000000 0.029500
vn 2.052345 2.052345 2.356196
v 0.021213 0.021213 0.029500
vn 2.902452 0.000000 -2.356194
v 0.030000 0.000000 -0.029500
vn -0.000000 -2.902452 -2.356192
v 0.000000 -0.030000 -0.029500
vn -2.052344 -2.052346 -2.356196
v -0.021213 -0.021213 -0.029500
vn 2.052341 -2.052345 2.356191
v 0.021213 -0.021213 0.029500
vn -0.000005 -2.902453 2.356193
v 0.000000 -0.030000 0.029500
vn -2.052348 -2.052342 2.356196
v -0.021213 -0.021213 0.029500
vn -2.902453 0.000004 2.356194
v -0.030000 0.000000 0.029500
# 16 vertices, 0 vertices normals

f 6//6 1//1 2//2
f 6//6 2//2 7//7
f 16//16 7//7 2//2
f 16//16 2//2 3//3
f 2//2 1//1 5//5
f 5//5 3//3 2//2
f 5//5 10//10 3//3
f 10//10 12//12 3//3
f 10//10 4//4 12//12
f 4//4 11//11 12//12
f 9//9 6//6 7//7
f 9//9 7//7 16//16
f 8//8 9//9 16//16
f 15//15 8//8 16//16
f 15//15 13//13 8//8
f 15//15 14//14 13//13
f 1//1 6//6 9//9
f 1//1 9//9 5//5
f 15//15 12//12 11//11
f 15//15 11//11 14//14
f 13//13 4//4 10//10
f 13//13 10//10 8//8
f 15//15 16//16 3//3
f 15//15 3//3 12//12
f 8//8 10//10 5//5
f 8//8 5//5 9//9
f 14//14 11//11 4//4
f 14//14 4//4 13//13
# 28 faces, 0 coords texture

# End of File
