####
#
# OBJ File Generated by Meshlab
#
####
# Object icub_simple_collision_lap_belt_1.obj
#
# Vertices: 200
# Faces: 332
#
####
mtllib ./icub_simple_collision_lap_belt_1.obj.mtl

vn -1.971976 -2.445693 -0.051289
v -0.133150 -0.061504 -0.007628
vn 0.537136 0.159419 -3.244693
v -0.020850 0.004336 -0.107329
vn 1.495702 -0.382864 -6.050517
v -0.008200 -0.028466 -0.105315
vn 0.815387 0.676557 -3.085740
v -0.009557 0.016830 -0.103489
vn -0.568883 -6.207389 -0.022539
v -0.063678 -0.093962 -0.014931
vn -3.352580 -5.273468 -0.036331
v -0.116553 -0.074630 -0.012749
vn -1.606941 -2.102244 -0.016209
v -0.133142 -0.061439 -0.025003
vn -3.012811 -5.439769 -0.067715
v -0.112377 -0.077263 -0.025033
vn -1.736643 -5.952164 0.156469
v -0.081632 -0.090539 -0.021001
vn -2.504526 -5.563828 -0.179041
v -0.096467 -0.085380 -0.011997
vn -0.609225 -6.189652 -0.314811
v -0.063596 -0.093810 -0.030492
vn 0.070407 -0.315300 -3.126719
v -0.056527 -0.044063 -0.109170
vn -0.003461 -0.111769 -3.136645
v -0.056541 -0.028416 -0.109891
vn -1.493561 -2.654108 -0.033780
v -0.116458 -0.073929 -0.047988
vn -1.976837 -5.894409 -0.404032
v -0.088624 -0.086907 -0.050594
vn -1.401616 -2.108686 0.128473
v -0.126038 -0.067196 -0.042001
vn -1.348172 -3.042495 -0.026799
v -0.100346 -0.081671 -0.055295
vn 0.310815 0.324740 -0.931575
v 0.000559 0.032714 -0.094576
vn 0.610805 -6.088434 0.492805
v -0.037460 -0.093885 -0.020790
vn -0.519191 -6.097222 -0.934838
v -0.062353 -0.091919 -0.057530
vn -0.428706 -3.214005 -0.759649
v -0.075552 -0.085995 -0.075145
vn 0.744214 -5.799836 -1.937354
v -0.037459 -0.087133 -0.076695
vn -0.830725 -3.204408 -0.448636
v -0.087023 -0.085734 -0.064357
vn -0.064931 -3.055276 -1.208613
v -0.066681 -0.083571 -0.086601
vn 0.017692 -2.488945 -2.163150
v -0.061379 -0.078062 -0.095320
vn 0.810006 -4.854119 -3.545220
v -0.037459 -0.079856 -0.092191
vn 1.739937 -5.567138 1.270593
v -0.015210 -0.088976 -0.008999
vn 0.348983 0.027152 -3.257541
v -0.037459 -0.008764 -0.109815
vn 0.740589 -0.229914 -2.942770
v 0.018610 -0.012382 -0.098298
vn 0.796512 0.348624 -2.794475
v 0.014616 0.005796 -0.099270
vn 2.042894 -5.870912 -0.213567
v -0.016145 -0.089226 -0.021004
vn 0.730210 -6.109192 -0.819777
v -0.037459 -0.091802 -0.054685
vn 1.988478 -5.810581 -0.820556
v -0.017789 -0.087605 -0.053312
vn 2.059549 -5.437947 -2.034371
v -0.017040 -0.081942 -0.076687
vn 2.043786 -4.372543 -3.674076
v -0.017237 -0.074351 -0.091109
vn 0.754491 -3.143688 -5.140291
v -0.037459 -0.069059 -0.102070
vn 0.000226 -1.314224 -3.048433
v -0.056770 -0.063348 -0.105388
vn 1.826711 -2.688864 -5.175006
v -0.017433 -0.062145 -0.100680
vn 0.581631 -1.283565 -6.021928
v -0.037459 -0.052439 -0.107896
vn 0.465597 -0.259207 -6.222244
v -0.037462 -0.028442 -0.109993
vn 1.416474 -1.190782 -5.918191
v -0.017614 -0.046375 -0.105638
vn 3.311934 -5.296465 -0.072852
v 0.007422 -0.077705 -0.011991
vn 1.937651 -2.520715 -0.065610
v 0.015566 -0.071408 -0.012851
vn 0.010536 0.008151 -3.237499
v -0.046721 -0.014115 -0.110100
vn 2.799462 -4.426172 -3.174563
v 0.002282 -0.068326 -0.084427
vn 1.708986 -2.269113 -1.672030
v 0.018611 -0.059135 -0.080027
vn 1.785640 -2.634214 -0.844588
v 0.017730 -0.064484 -0.069589
vn 2.963755 -5.176312 -1.669277
v 0.002546 -0.074313 -0.071178
vn 1.837108 -2.606090 -0.334894
v 0.016688 -0.068607 -0.048951
vn 2.469201 -3.094692 -4.682733
v 0.002021 -0.058186 -0.094229
vn 1.423231 -1.478055 -2.477910
v 0.019861 -0.047921 -0.090109
vn 2.056941 -1.596060 -5.636168
v 0.001778 -0.044528 -0.100031
vn 1.187083 -0.804818 -2.795243
v 0.020324 -0.037850 -0.094078
vn 0.947829 -0.353827 -2.905937
v 0.020194 -0.028413 -0.096028
vn 3.105125 -5.334336 -0.756346
v 0.003222 -0.077873 -0.052290
vn 3.267672 -5.318155 -0.269097
v 0.006624 -0.077817 -0.024016
vn 1.876426 -2.555745 -0.172449
v 0.016016 -0.070410 -0.030659
vn 1.367015 0.241503 -6.087584
v -0.005075 -0.002321 -0.105044
vn -0.081206 0.026601 -1.995443
v -0.056538 -0.018580 -0.109760
vn -3.521211 -5.155628 -0.000010
v -0.120645 -0.071976 -0.000001
vn -1.998289 -2.427530 -0.000063
v -0.133228 -0.061618 -0.000007
vn -1.971987 -2.445688 0.051250
v -0.133150 -0.061504 0.007628
vn 0.537136 0.159419 3.244693
v -0.020850 0.004336 0.107329
vn 1.495702 -0.382864 6.050517
v -0.008200 -0.028466 0.105315
vn 0.213392 -6.162052 0.000176
v -0.055919 -0.094871 0.000004
vn 0.815387 0.676557 3.085740
v -0.009557 0.016830 0.103489
vn -0.568930 -6.207389 0.022573
v -0.063678 -0.093962 0.014931
vn -1.588655 -6.033351 0.000001
v -0.076273 -0.091812 -0.000000
vn -3.352588 -5.273464 0.036338
v -0.116553 -0.074630 0.012749
vn -1.606941 -2.102244 0.016209
v -0.133142 -0.061439 0.025003
vn -3.012811 -5.439769 0.067715
v -0.112377 -0.077263 0.025033
vn -1.736643 -5.952164 -0.156469
v -0.081632 -0.090539 0.021001
vn -2.504517 -5.563842 0.179086
v -0.096467 -0.085380 0.011997
vn -0.609225 -6.189652 0.314811
v -0.063596 -0.093810 0.030492
vn 0.070407 -0.315300 3.126719
v -0.056527 -0.044063 0.109170
vn -0.003461 -0.111769 3.136645
v -0.056541 -0.028416 0.109891
vn -1.493561 -2.654108 0.033780
v -0.116458 -0.073929 0.047988
vn -1.976837 -5.894409 0.404032
v -0.088624 -0.086907 0.050594
vn -1.401616 -2.108686 -0.128473
v -0.126038 -0.067196 0.042001
vn -1.348172 -3.042495 0.026799
v -0.100346 -0.081671 0.055295
vn 0.310815 0.324740 0.931575
v 0.000559 0.032714 0.094576
vn 0.610805 -6.088434 -0.492805
v -0.037460 -0.093885 0.020790
vn -0.519191 -6.097222 0.934838
v -0.062353 -0.091919 0.057530
vn -0.428706 -3.214005 0.759649
v -0.075552 -0.085995 0.075145
vn 0.744214 -5.799836 1.937354
v -0.037459 -0.087133 0.076695
vn -0.830725 -3.204408 0.448636
v -0.087023 -0.085734 0.064357
vn -0.064931 -3.055276 1.208613
v -0.066681 -0.083571 0.086601
vn 0.017692 -2.488945 2.163150
v -0.061379 -0.078062 0.095320
vn 0.810006 -4.854119 3.545220
v -0.037459 -0.079856 0.092191
vn 3.162704 -5.381559 0.000005
v 0.007545 -0.077517 -0.000000
vn 1.739745 -5.566937 -1.271030
v -0.015210 -0.088976 0.008999
vn 0.348983 0.027152 3.257541
v -0.037459 -0.008764 0.109815
vn 0.740589 -0.229914 2.942770
v 0.018610 -0.012382 0.098298
vn 0.796512 0.348624 2.794475
v 0.014616 0.005796 0.099270
vn 2.042894 -5.870912 0.213567
v -0.016145 -0.089226 0.021004
vn 0.730210 -6.109192 0.819777
v -0.037459 -0.091802 0.054685
vn 1.988478 -5.810581 0.820556
v -0.017789 -0.087605 0.053312
vn 2.059549 -5.437947 2.034371
v -0.017040 -0.081942 0.076687
vn 2.043786 -4.372543 3.674076
v -0.017237 -0.074351 0.091109
vn 0.754491 -3.143688 5.140291
v -0.037459 -0.069059 0.102070
vn 0.000226 -1.314224 3.048433
v -0.056770 -0.063348 0.105388
vn 1.826711 -2.688864 5.175006
v -0.017433 -0.062145 0.100680
vn 0.581631 -1.283565 6.021928
v -0.037459 -0.052439 0.107896
vn 0.465597 -0.259207 6.222244
v -0.037462 -0.028442 0.109993
vn 1.416474 -1.190782 5.918191
v -0.017614 -0.046375 0.105638
vn 1.914268 -2.529698 0.000002
v 0.015474 -0.071615 0.000002
vn 3.311933 -5.296465 0.072852
v 0.007422 -0.077705 0.011991
vn 1.937649 -2.520712 0.065613
v 0.015566 -0.071408 0.012851
vn 0.010536 0.008151 3.237499
v -0.046721 -0.014115 0.110100
vn 2.799462 -4.426172 3.174563
v 0.002282 -0.068326 0.084427
vn 1.708986 -2.269113 1.672030
v 0.018611 -0.059135 0.080027
vn 1.785640 -2.634214 0.844588
v 0.017730 -0.064484 0.069589
vn 2.963755 -5.176312 1.669277
v 0.002546 -0.074313 0.071178
vn 1.837108 -2.606090 0.334894
v 0.016688 -0.068607 0.048951
vn 2.469201 -3.094692 4.682733
v 0.002021 -0.058186 0.094229
vn 1.423231 -1.478055 2.477910
v 0.019861 -0.047921 0.090109
vn 2.056941 -1.596060 5.636168
v 0.001778 -0.044528 0.100031
vn 1.187083 -0.804818 2.795243
v 0.020324 -0.037850 0.094078
vn 0.947829 -0.353827 2.905937
v 0.020194 -0.028413 0.096028
vn 3.105125 -5.334336 0.756346
v 0.003222 -0.077873 0.052290
vn 3.267672 -5.318155 0.269097
v 0.006624 -0.077817 0.024016
vn 1.876426 -2.555745 0.172449
v 0.016016 -0.070410 0.030659
vn 1.367015 0.241503 6.087584
v -0.005075 -0.002321 0.105044
vn -0.081206 0.026601 1.995443
v -0.056538 -0.018580 0.109760
vn 1.694521 -1.271193 -0.019760
v 0.015566 -0.071408 -0.012851
vn 1.465726 -2.516530 -1.637749
v 0.018611 -0.059135 -0.080027
vn 1.226335 -2.801093 -0.815862
v 0.017730 -0.064484 -0.069589
vn 1.245655 -1.773033 0.124014
v 0.016688 -0.068607 -0.048951
vn 1.697907 -1.426391 -2.654330
v 0.019861 -0.047921 -0.090109
vn 1.713231 -1.288171 -0.030055
v 0.016016 -0.070410 -0.030659
vn -2.609184 2.541287 -1.583787
v 0.004024 0.040527 -0.015273
vn 2.344894 2.893008 -2.107099
v 0.052572 0.040816 -0.021066
vn 1.428770 2.662182 -2.698702
v 0.045343 0.040814 -0.027481
vn 0.053608 2.664783 -3.055095
v 0.031765 0.040814 -0.030952
vn -1.383418 2.600927 -2.645874
v 0.018109 0.040814 -0.027991
vn 2.817165 2.740162 -1.178285
v 0.059570 0.041109 -0.010678
vn 2.985296 0.439530 -2.575825
v 0.027984 0.004567 -0.088482
vn 3.297650 0.670146 2.544394
v 0.027984 0.004567 -0.060982
vn 2.228628 1.994762 2.519756
v 0.020029 0.022420 -0.060982
vn 2.228628 1.994762 -2.519756
v 0.020029 0.022420 -0.088482
vn 0.417357 2.880473 2.369779
v 0.003159 0.032300 -0.060982
vn 0.417357 2.880473 -2.369779
v 0.003159 0.032300 -0.088482
vn -0.737179 4.027496 2.411059
v -0.015824 0.027614 -0.060982
vn -1.254366 2.682116 -2.810113
v -0.015824 0.027614 -0.088482
vn -1.923784 -0.487341 -1.013468
v -0.091156 -0.040594 -0.022000
vn -3.662845 2.166911 -2.710339
v -0.067114 -0.016553 -0.026429
vn -1.828760 4.178101 1.719127
v -0.040244 0.010318 -0.038000
vn -2.131451 -0.118289 -1.486471
v -0.057686 -0.007124 -0.087167
vn -2.056417 2.500353 -2.922751
v -0.035530 0.015032 -0.087167
vn -0.464590 2.124741 2.390382
v -0.035295 0.015267 -0.038000
vn -4.563918 0.909366 -1.311926
v -0.058136 -0.007574 -0.037610
vn -2.529498 -2.591243 -1.562387
v 0.004438 -0.034235 -0.014948
vn 2.345792 -2.884887 -1.998011
v 0.052986 -0.033947 -0.020740
vn 1.434588 -2.669797 -2.694728
v 0.045757 -0.033949 -0.027155
vn 0.058704 -2.690784 -3.058807
v 0.032179 -0.033949 -0.030626
vn -1.387368 -2.639810 -2.756259
v 0.018524 -0.033949 -0.027665
vn 2.875946 -2.727896 -1.155046
v 0.059984 -0.033654 -0.010352
vn -0.056818 6.281398 0.000661
v 0.032804 0.041104 0.000065
vn 1.703370 -1.264628 -0.000053
v 0.015474 -0.071615 0.000002
vn 1.695201 -1.270941 0.019607
v 0.015566 -0.071408 0.012851
vn 1.465726 -2.516530 1.637749
v 0.018611 -0.059135 0.080027
vn 1.226335 -2.801093 0.815862
v 0.017730 -0.064484 0.069589
vn 1.245407 -1.772728 -0.124478
v 0.016688 -0.068607 0.048951
vn 1.697907 -1.426391 2.654330
v 0.019861 -0.047921 0.090109
vn 1.712975 -1.287094 0.030632
v 0.016016 -0.070410 0.030659
vn -2.609233 2.541286 1.583822
v 0.004024 0.040527 0.015273
vn 2.344894 2.893008 2.107099
v 0.052572 0.040816 0.021066
vn 1.428770 2.662182 2.698702
v 0.045343 0.040814 0.027481
vn 0.053608 2.664783 3.055095
v 0.031765 0.040814 0.030952
vn -1.383418 2.600927 2.645874
v 0.018109 0.040814 0.027991
vn -3.080787 2.606213 0.000018
v 0.000000 0.040527 -0.000000
vn 2.817494 2.737956 1.176784
v 0.059570 0.041109 0.010678
vn 3.092953 2.801035 0.001527
v 0.061500 0.041109 0.000000
vn 2.985296 0.439530 2.575825
v 0.027984 0.004567 0.088482
vn 3.297650 0.670146 -2.544394
v 0.027984 0.004567 0.060982
vn 2.228628 1.994762 -2.519756
v 0.020029 0.022420 0.060982
vn 2.228628 1.994762 2.519756
v 0.020029 0.022420 0.088482
vn 0.417357 2.880473 -2.369779
v 0.003159 0.032300 0.060982
vn 0.417357 2.880473 2.369779
v 0.003159 0.032300 0.088482
vn -0.737179 4.027496 -2.411059
v -0.015824 0.027614 0.060982
vn -1.254366 2.682116 2.810113
v -0.015824 0.027614 0.088482
vn -1.923784 -0.487341 1.013468
v -0.091156 -0.040594 0.022000
vn -3.071040 -0.803055 0.000031
v -0.091156 -0.040594 0.000464
vn -3.662845 2.166911 2.710339
v -0.067114 -0.016553 0.026429
vn 0.345110 4.032847 -0.000086
v -0.040244 0.010318 0.000309
vn -4.442884 4.442882 0.000000
v -0.067114 -0.016552 0.000391
vn -1.828760 4.178101 -1.719127
v -0.040244 0.010318 0.038000
vn -2.131451 -0.118289 1.486471
v -0.057686 -0.007124 0.087167
vn -2.056417 2.500353 2.922751
v -0.035530 0.015032 0.087167
vn -0.464590 2.124741 -2.390382
v -0.035295 0.015267 0.038000
vn -4.563918 0.909366 1.311926
v -0.058136 -0.007574 0.037610
vn 0.056625 -6.281324 0.002780
v 0.033218 -0.033658 -0.000260
vn -2.533686 -2.583425 1.548419
v 0.004438 -0.034235 0.014948
vn 2.345792 -2.884887 1.998011
v 0.052986 -0.033947 0.020740
vn 1.434588 -2.669797 2.694728
v 0.045757 -0.033949 0.027155
vn 0.058704 -2.690784 3.058807
v 0.032179 -0.033949 0.030626
vn -1.387368 -2.639810 2.756259
v 0.018524 -0.033949 0.027665
vn -2.990188 -2.631875 -0.018581
v 0.000415 -0.034235 -0.000326
vn 2.879351 -2.716457 1.137497
v 0.059984 -0.033654 0.010352
vn 3.086892 -2.757726 -0.017460
v 0.061914 -0.033654 -0.000326
# 200 vertices, 0 vertices normals


usemtl material_0
vt 0.000000 0.000000
vt 1.000000 0.000000
vt 1.000000 1.000000
f 2/1/2 4/2/4 58/3/58
f 44/1/44 40/2/40 13/3/13
f 44/1/44 28/2/28 40/3/40
f 58/1/58 3/2/3 40/3/40
f 10/1/10 5/2/5 68/3/68
f 6/1/6 1/2/1 7/3/7
f 11/1/11 19/2/19 5/3/5
f 9/1/9 8/2/8 14/3/14
f 5/1/5 65/2/65 68/3/68
f 21/1/21 24/2/24 20/3/20
f 22/1/22 20/2/20 24/3/24
f 23/1/23 21/2/21 20/3/20
f 15/1/15 23/2/23 20/3/20
f 26/1/26 24/2/24 25/3/25
f 26/1/26 22/2/22 24/3/24
f 17/1/17 23/2/23 15/3/15
f 31/1/31 19/2/19 32/3/32
f 9/1/9 15/2/15 20/3/20
f 33/1/33 31/2/31 32/3/32
f 38/1/38 36/2/36 39/3/39
f 38/1/38 35/2/35 36/3/36
f 22/1/22 32/2/32 20/3/20
f 41/1/41 38/2/38 39/3/39
f 7/1/7 16/2/16 14/3/14
f 30/1/30 58/2/58 4/3/4
f 32/1/32 19/2/19 20/3/20
f 9/1/9 20/2/20 11/3/11
f 8/1/8 6/2/6 7/3/7
f 45/1/45 46/2/46 47/3/47
f 48/1/48 45/2/45 47/3/47
f 49/1/49 48/2/48 47/3/47
f 50/1/50 51/2/51 46/3/46
f 45/1/45 50/2/50 46/3/46
f 52/1/52 53/2/53 51/3/51
f 50/1/50 52/2/52 51/3/51
f 54/1/54 53/2/53 52/3/52
f 29/1/29 54/2/54 58/3/58
f 41/1/41 52/2/52 50/3/50
f 54/1/54 3/2/3 58/3/58
f 38/1/38 50/2/50 45/3/45
f 41/1/41 50/2/50 38/3/38
f 35/1/35 45/2/45 48/3/48
f 38/1/38 45/2/45 35/3/35
f 49/1/49 55/2/55 48/3/48
f 34/1/34 48/2/48 55/3/55
f 35/1/35 48/2/48 34/3/34
f 34/1/34 55/2/55 33/3/33
f 33/1/33 55/2/55 56/3/56
f 57/1/57 56/2/56 55/3/55
f 49/1/49 57/2/57 55/3/55
f 31/1/31 33/2/33 56/3/56
f 57/1/57 43/2/43 56/3/56
f 9/1/9 14/2/14 15/3/15
f 10/1/10 6/2/6 9/3/9
f 27/1/27 65/2/65 5/3/5
f 19/1/19 11/2/11 20/3/20
f 43/1/43 106/2/106 42/3/42
f 30/1/30 29/2/29 58/3/58
f 31/1/31 56/2/56 42/3/42
f 18/1/18 30/2/30 4/3/4
f 41/1/41 39/2/39 40/3/40
f 3/1/3 52/2/52 41/3/41
f 54/1/54 52/2/52 3/3/3
f 3/1/3 41/2/41 40/3/40
f 90/1/90 65/2/65 27/3/27
f 44/1/44 13/2/13 59/3/59
f 37/1/37 12/2/12 39/3/39
vt 0.927103 0.000000
f 1/1/1 60/4/60 61/3/61
f 17/1/17 15/2/15 14/3/14
f 43/1/43 42/2/42 56/3/56
f 33/1/33 32/2/32 22/3/22
f 34/1/34 22/2/22 26/3/26
f 34/1/34 33/2/33 22/3/22
f 35/1/35 26/2/26 36/3/36
f 35/1/35 34/2/34 26/3/26
f 37/1/37 39/2/39 36/3/36
f 25/1/25 36/2/36 26/3/26
f 25/1/25 37/2/37 36/3/36
f 13/1/13 40/2/40 39/3/39
f 2/1/2 58/2/58 28/3/28
f 9/1/9 6/2/6 8/3/8
f 58/1/58 40/2/40 28/3/28
f 13/1/13 39/2/39 12/3/12
f 68/1/68 60/2/60 10/3/10
f 90/1/90 42/2/42 106/3/106
f 11/1/11 5/2/5 9/3/9
f 10/1/10 9/2/9 5/3/5
f 19/1/19 27/2/27 5/3/5
f 10/1/10 60/2/60 6/3/6
f 7/1/7 14/2/14 8/3/8
f 60/2/60 1/3/1 6/1/6
f 27/1/27 42/2/42 90/3/90
f 27/1/27 31/2/31 42/3/42
f 31/1/31 27/2/27 19/3/19
f 63/1/63 123/3/123 66/2/66
f 109/1/109 76/3/76 104/2/104
f 109/1/109 104/3/104 92/2/92
f 123/1/123 104/3/104 64/2/64
f 73/1/73 68/3/68 67/2/67
f 69/1/69 70/3/70 62/2/62
f 74/1/74 67/3/67 82/2/82
f 72/1/72 77/3/77 71/2/71
f 67/1/67 68/3/68 65/2/65
f 84/1/84 83/3/83 87/2/87
f 85/1/85 87/3/87 83/2/83
f 86/1/86 83/3/83 84/2/84
f 78/1/78 83/3/83 86/2/86
f 89/1/89 88/3/88 87/2/87
f 89/1/89 87/3/87 85/2/85
f 80/1/80 78/3/78 86/2/86
f 95/1/95 96/3/96 82/2/82
f 72/1/72 83/3/83 78/2/78
f 97/1/97 96/3/96 95/2/95
f 102/1/102 103/3/103 100/2/100
f 102/1/102 100/3/100 99/2/99
f 85/1/85 83/3/83 96/2/96
f 105/1/105 103/3/103 102/2/102
f 70/1/70 77/3/77 79/2/79
f 94/1/94 66/3/66 123/2/123
f 96/1/96 83/3/83 82/2/82
f 72/1/72 74/3/74 83/2/83
f 71/1/71 70/3/70 69/2/69
f 110/1/110 112/3/112 111/2/111
f 113/1/113 112/3/112 110/2/110
f 114/1/114 112/3/112 113/2/113
f 115/1/115 111/3/111 116/2/116
f 110/1/110 111/3/111 115/2/115
f 117/1/117 116/3/116 118/2/118
f 115/1/115 116/3/116 117/2/117
f 119/1/119 117/3/117 118/2/118
f 93/1/93 123/3/123 119/2/119
f 105/1/105 115/3/115 117/2/117
f 119/1/119 123/3/123 64/2/64
f 102/1/102 110/3/110 115/2/115
f 105/1/105 102/3/102 115/2/115
f 99/1/99 113/3/113 110/2/110
f 102/1/102 99/3/99 110/2/110
f 114/1/114 113/3/113 120/2/120
f 98/1/98 120/3/120 113/2/113
f 99/1/99 98/3/98 113/2/113
f 98/1/98 97/3/97 120/2/120
f 97/1/97 121/3/121 120/2/120
f 122/1/122 120/3/120 121/2/121
f 114/1/114 120/3/120 122/2/122
f 95/1/95 121/3/121 97/2/97
f 122/1/122 121/3/121 108/2/108
f 72/1/72 78/3/78 77/2/77
f 73/1/73 72/3/72 69/2/69
f 91/1/91 67/3/67 65/2/65
f 82/1/82 83/3/83 74/2/74
f 108/1/108 107/3/107 106/2/106
f 94/1/94 123/3/123 93/2/93
f 95/1/95 107/3/107 121/2/121
f 81/1/81 66/3/66 94/2/94
f 105/1/105 104/3/104 103/2/103
f 64/1/64 105/3/105 117/2/117
f 119/1/119 64/3/64 117/2/117
f 64/1/64 104/3/104 105/2/105
f 90/1/90 91/3/91 65/2/65
f 109/1/109 124/3/124 76/2/76
f 101/1/101 103/3/103 75/2/75
f 62/1/62 61/3/61 60/4/60
f 80/1/80 77/3/77 78/2/78
f 108/1/108 121/3/121 107/2/107
f 97/1/97 85/3/85 96/2/96
f 98/1/98 89/3/89 85/2/85
f 98/1/98 85/3/85 97/2/97
f 99/1/99 100/3/100 89/2/89
f 99/1/99 89/3/89 98/2/98
f 101/1/101 100/3/100 103/2/103
f 88/1/88 89/3/89 100/2/100
f 88/1/88 100/3/100 101/2/101
f 76/1/76 103/3/103 104/2/104
f 63/1/63 92/3/92 123/2/123
f 72/1/72 71/3/71 69/2/69
f 123/1/123 92/3/92 104/2/104
f 76/1/76 75/3/75 103/2/103
f 68/1/68 73/3/73 60/2/60
f 90/1/90 106/3/106 107/2/107
f 74/1/74 72/3/72 67/2/67
f 73/1/73 67/3/67 72/2/72
f 82/1/82 67/3/67 91/2/91
f 73/1/73 69/3/69 60/2/60
f 70/1/70 71/3/71 77/2/77
f 69/1/69 62/3/62 60/2/60
f 91/1/91 90/3/90 107/2/107
f 91/1/91 107/3/107 95/2/95
f 95/1/95 82/3/82 91/2/91
f 141/1/141 140/2/140 142/3/142
f 133/1/133 134/3/134 135/2/135
f 132/1/132 133/2/133 135/3/135
vt 0.489692 0.000000
f 171/1/171 158/5/158 131/3/131
f 139/1/139 138/2/138 137/3/137
f 137/1/137 144/3/144 140/2/140
f 139/1/139 137/2/137 140/3/140
f 143/1/143 141/2/141 142/3/142
f 143/1/143 142/2/142 144/3/144
f 146/1/146 145/2/145 183/3/183
f 151/1/151 146/2/146 147/3/147
vt 0.507638 0.000000
vt 1.000000 0.581683
f 186/6/186 146/2/146 183/7/183
f 137/1/137 126/1/126 129/2/129
f 151/1/151 147/2/147 148/3/148
f 147/1/147 149/2/149 148/3/148
f 147/1/147 150/2/150 149/3/149
f 147/1/147 186/2/186 185/3/185
f 146/1/146 186/2/186 147/3/147
f 142/2/142 140/2/140 144/3/144
f 137/1/137 129/1/129 149/1/149
f 149/1/149 144/3/144 137/1/137
f 129/1/129 148/2/148 149/1/149
f 141/1/141 139/2/139 140/3/140
f 149/2/149 150/1/150 143/1/143
f 138/1/138 127/1/127 126/2/126
f 138/1/138 128/1/128 127/3/127
f 144/1/144 149/2/149 143/1/143
f 132/1/132 131/2/131 136/3/136
f 158/1/158 173/2/173 136/3/136
f 135/1/135 131/2/131 132/3/132
f 158/1/158 136/2/136 131/3/131
f 154/1/154 156/2/156 155/3/155
f 153/1/153 156/3/156 154/2/154
f 198/1/198 152/3/152 192/5/192
f 153/1/153 157/3/157 152/2/152
f 192/1/192 157/3/157 200/2/200
f 156/1/156 153/3/153 152/2/152
f 192/1/192 152/3/152 157/2/157
f 136/3/136 173/2/173 200/2/200
f 136/3/136 200/2/200 157/3/157
f 134/3/134 133/1/133 154/1/154
f 134/3/134 154/1/154 155/3/155
f 132/1/132 136/3/136 157/3/157
f 132/1/132 157/3/157 153/1/153
f 135/2/135 134/3/134 155/3/155
f 135/2/135 155/3/155 156/2/156
f 171/1/171 131/3/131 152/3/152
f 171/1/171 152/3/152 198/1/198
f 133/2/133 132/1/132 153/1/153
f 133/2/133 153/1/153 154/2/154
f 131/2/131 135/1/135 156/1/156
f 131/2/131 156/1/156 152/2/152
f 128/1/128 138/1/138 143/1/143
f 141/1/141 143/1/143 139/1/139
f 128/1/128 150/1/150 147/1/147
f 128/1/128 143/1/143 150/1/150
f 139/1/139 143/1/143 138/1/138
f 148/1/148 129/1/129 126/2/126
f 148/1/148 126/1/126 127/2/127
f 148/1/148 127/1/127 128/3/128
f 128/1/128 151/3/151 148/1/148
f 151/1/151 128/1/128 146/1/146
f 146/1/146 128/1/128 145/1/145
f 145/1/145 128/1/128 130/1/130
f 130/1/130 183/2/183 145/1/145
f 183/1/183 130/1/130 125/1/125
f 183/1/183 125/1/125 159/1/159
f 128/1/128 147/3/147 185/1/185
f 185/1/185 130/1/130 128/1/128
f 185/1/185 125/1/125 130/1/130
f 185/1/185 159/1/159 125/1/125
f 178/1/178 179/3/179 177/2/177
f 168/1/168 170/2/170 169/3/169
f 167/1/167 170/3/170 168/2/168
f 171/1/171 166/3/166 158/5/158
f 176/1/176 174/3/174 175/2/175
f 174/1/174 177/2/177 181/3/181
f 176/1/176 177/3/177 174/2/174
f 180/1/180 179/3/179 178/2/178
f 180/1/180 181/3/181 179/2/179
f 184/1/184 183/3/183 182/2/182
f 191/1/191 187/3/187 184/2/184
f 186/6/186 183/7/183 184/2/184
f 174/1/174 164/2/164 161/1/161
f 191/1/191 188/3/188 187/2/187
f 187/1/187 188/3/188 189/2/189
f 187/1/187 189/3/189 190/2/190
f 187/1/187 185/3/185 186/2/186
f 184/1/184 187/3/187 186/2/186
f 179/2/179 181/3/181 177/2/177
f 174/1/174 189/1/189 164/1/164
f 189/1/189 174/1/174 181/3/181
f 164/1/164 189/1/189 188/2/188
f 178/1/178 177/3/177 176/2/176
f 189/2/189 180/1/180 190/1/190
f 126/1/126 137/1/137 138/3/138
f 175/1/175 161/2/161 162/1/162
f 175/1/175 162/3/162 163/1/163
f 181/1/181 180/1/180 189/2/189
f 167/1/167 172/3/172 166/2/166
f 158/1/158 172/3/172 173/2/173
f 170/1/170 167/3/167 166/2/166
f 158/1/158 166/3/166 172/2/172
f 195/1/195 196/3/196 197/2/197
f 194/1/194 195/2/195 197/3/197
f 198/1/198 192/5/192 193/3/193
f 194/1/194 193/2/193 199/3/199
f 192/1/192 200/2/200 199/3/199
f 197/1/197 193/2/193 194/3/194
f 192/1/192 199/2/199 193/3/193
f 172/3/172 199/3/199 200/2/200
f 172/3/172 200/2/200 173/2/173
f 169/3/169 196/3/196 195/1/195
f 169/3/169 195/1/195 168/1/168
f 167/1/167 194/1/194 199/3/199
f 167/1/167 199/3/199 172/3/172
f 170/2/170 197/2/197 196/3/196
f 170/2/170 196/3/196 169/3/169
f 171/1/171 198/1/198 193/3/193
f 171/1/171 193/3/193 166/3/166
f 168/2/168 195/2/195 194/1/194
f 168/2/168 194/1/194 167/1/167
f 166/2/166 193/2/193 197/1/197
f 166/2/166 197/1/197 170/1/170
f 163/1/163 180/1/180 175/1/175
f 178/1/178 176/1/176 180/1/180
f 163/1/163 187/1/187 190/1/190
f 163/1/163 190/1/190 180/1/180
f 176/1/176 175/1/175 180/1/180
f 188/1/188 161/2/161 164/1/164
f 188/1/188 162/2/162 161/1/161
f 188/1/188 163/3/163 162/1/162
f 163/1/163 188/1/188 191/3/191
f 191/1/191 184/1/184 163/1/163
f 184/1/184 182/1/182 163/1/163
f 182/1/182 165/1/165 163/1/163
f 165/1/165 182/1/182 183/2/183
f 183/1/183 160/1/160 165/1/165
f 183/1/183 159/1/159 160/1/160
f 163/1/163 185/1/185 187/3/187
f 185/1/185 163/1/163 165/1/165
f 185/1/185 165/1/165 160/1/160
f 185/1/185 160/1/160 159/1/159
f 175/2/175 174/2/174 161/1/161
# 332 faces, 7 coords texture

# End of File
