####
#
# OBJ File Generated by Meshlab
#
####
# Object icub_simple_collision_l_forearm.obj
#
# Vertices: 107
# Faces: 174
#
####
vn 0.000002 0.000009 -6.283185
v -0.000000 -0.000000 0.000000
vn -2.413305 1.612520 -2.356202
v -0.016310 0.010898 0.000000
vn -2.846682 -0.566238 -2.356185
v -0.019239 -0.003827 0.000000
vn -1.612511 -2.413297 -2.356201
v -0.010898 -0.016310 -0.000000
vn 0.566243 -2.846670 -2.356193
v 0.003827 -0.019239 -0.000000
vn 2.413308 -1.612521 -2.356202
v 0.016310 -0.010898 0.000000
vn 2.846680 0.566235 -2.356188
v 0.019239 0.003827 0.000000
vn 1.612520 2.413303 -2.356199
v 0.010898 0.016310 0.000000
vn 0.000000 0.000000 6.283185
v -0.000000 -0.000000 0.140000
vn 1.612521 2.413303 2.356200
v 0.010898 0.016310 0.140000
vn -0.566236 2.846681 2.356189
v -0.003827 0.019239 0.140000
vn -2.413303 1.612521 2.356200
v -0.016310 0.010898 0.140000
vn -2.846680 -0.566237 2.356188
v -0.019239 -0.003827 0.140000
vn 0.566236 -2.846680 2.356188
v 0.003827 -0.019239 0.140000
vn 2.846681 0.566237 2.356189
v 0.019239 0.003827 0.140000
vn -0.566241 2.846679 -2.356187
v -0.003827 0.019239 0.000000
vn 2.413302 -1.612521 2.356200
v 0.016310 -0.010898 0.140000
vn -1.612521 -2.413302 2.356199
v -0.010898 -0.016310 0.140000
vn -0.146492 -2.464126 0.000129
v 0.000506 -0.032656 0.018584
vn 0.080520 -6.258046 0.267392
v 0.000500 -0.032158 0.046656
vn -0.716042 -6.216715 0.199540
v -0.010169 -0.031628 0.046757
vn -1.230239 -2.774475 -0.055407
v -0.025907 -0.028802 0.018614
vn -1.548785 -6.047579 0.283325
v -0.019548 -0.029989 0.046954
vn -2.674774 -5.613943 0.338663
v -0.027856 -0.027106 0.047184
vn -3.990106 -4.728149 0.251188
v -0.034774 -0.022805 0.047415
vn -2.593841 -1.438910 -0.081448
v -0.041164 -0.015853 0.018612
vn -5.195214 -3.329281 0.297768
v -0.039998 -0.016925 0.047618
vn -5.985935 -1.539149 0.197048
v -0.043254 -0.009337 0.047761
vn -6.204866 -0.054896 0.233136
v -0.044360 -0.000000 0.047816
vn -2.955271 0.487390 -0.093300
v -0.044485 0.005400 0.018594
vn -5.965720 1.628264 0.278086
v -0.043254 0.009337 0.047761
vn -6.090113 0.028630 0.894428
v -0.041715 -0.000000 0.081314
vn -5.712593 2.037616 0.881268
v -0.040085 0.010094 0.081148
vn -5.751319 -1.950967 0.905831
v -0.040234 -0.009663 0.081162
vn -4.710075 -3.858416 0.848345
v -0.036031 -0.017319 0.080782
vn -3.130123 -5.289223 0.701837
v -0.028500 -0.023681 0.080202
vn -1.652163 -5.996981 0.562167
v -0.016627 -0.028336 0.079495
vn -0.688813 -6.204154 0.535357
v -0.009003 -0.029692 0.079171
vn 0.134067 -6.233674 0.510604
v 0.000333 -0.030334 0.077518
vn -5.815465 -0.014024 1.910477
v -0.037112 -0.000000 0.102756
vn -5.558719 1.797545 1.806509
v -0.035860 0.008587 0.102584
vn -4.696912 -3.566884 1.652040
v -0.032250 -0.015596 0.102144
vn -5.512534 -1.818748 1.866791
v -0.035860 -0.008587 0.102584
vn -3.507781 -4.937675 1.283802
v -0.026558 -0.021029 0.101549
vn -2.185446 -5.762157 0.961147
v -0.019092 -0.024916 0.100914
vn -0.945910 -6.115847 0.859142
v -0.010155 -0.027285 0.100351
vn -0.023753 -3.194725 0.427574
v 0.000500 -0.026151 0.115139
vn 0.087357 -6.196045 0.762633
v 0.000500 -0.028018 0.100819
vn -1.015579 -3.522154 0.658338
v -0.012872 -0.024213 0.116024
vn -2.378294 -2.347650 0.907597
v -0.020196 -0.019633 0.122220
vn -2.413884 -0.944691 0.949855
v -0.021744 -0.013162 0.130334
vn -2.593534 -0.426406 1.113748
v -0.022286 -0.005796 0.133860
vn -2.665183 -0.013833 1.208456
v -0.022387 -0.000000 0.134568
vn -2.567870 0.426520 1.182354
v -0.022283 0.005886 0.133837
vn -0.665285 6.208177 0.541747
v -0.008797 0.029716 0.079164
vn 0.149630 6.227936 0.521210
v 0.000333 0.030366 0.077522
vn 0.006710 6.253964 0.246592
v 0.000500 0.032158 0.046656
vn -1.602584 6.013342 0.584736
v -0.016246 0.028428 0.079477
vn -2.569427 5.653249 0.257150
v -0.027856 0.027106 0.047184
vn -3.027236 5.360735 0.699234
v -0.027857 0.024052 0.080157
vn -1.180349 6.107662 0.240172
v -0.015414 0.030959 0.048503
vn -3.993694 4.729999 0.324365
v -0.034774 0.022805 0.047415
vn -4.599533 3.996383 0.833869
v -0.035467 0.017988 0.080734
vn -5.216145 3.286477 0.218292
v -0.039998 0.016925 0.047618
vn -1.914558 2.266943 -0.085587
v -0.034264 0.024096 0.018619
vn -0.628191 3.048122 -0.000225
v -0.014351 0.031427 0.018602
vn -0.086065 2.807807 0.038495
v 0.000505 0.032543 0.018587
vn -0.963504 6.123019 0.803666
v -0.010155 0.027285 0.100351
vn -2.200389 5.741668 1.015098
v -0.019092 0.024916 0.100914
vn -3.456710 4.990686 1.251275
v -0.026558 0.021029 0.101549
vn -4.745179 3.592977 1.546777
v -0.032250 0.015596 0.102144
vn 0.039532 3.191715 0.436043
v 0.000499 0.026162 0.115140
vn -1.146635 3.548500 0.730212
v -0.012625 0.024276 0.115964
vn -2.300657 2.310700 1.021474
v -0.020747 0.018249 0.124271
vn -2.374196 1.000469 1.068415
v -0.021744 0.013165 0.130331
vn 1.621837 -5.944102 0.555799
v 0.013152 -0.029254 0.074630
vn 1.812093 -2.883882 0.427027
v 0.027108 -0.023745 0.067357
vn 3.688130 -4.833217 0.879051
v 0.025343 -0.023534 0.074855
vn 1.559630 -5.970552 0.747346
v 0.011485 -0.026630 0.101580
vn 3.159971 -5.241874 0.869480
v 0.019222 -0.023484 0.101743
vn 2.994623 -1.496936 0.569600
v 0.033281 -0.013716 0.075183
vn 4.745899 -3.768239 1.134641
v 0.024904 -0.018504 0.102025
vn 5.745624 -1.811264 1.339261
v 0.028847 -0.010894 0.102334
vn 3.288338 -0.006859 0.586119
v 0.035042 0.000001 0.077170
vn 0.422327 -3.345108 0.149043
v 0.013779 -0.031402 0.040634
vn 0.136660 -2.464851 0.049945
v 0.010296 -0.032030 0.026195
vn 6.040881 -0.041423 1.405035
v 0.030353 -0.000000 0.102493
vn 2.575301 -0.472991 0.745014
v 0.022104 -0.007879 0.128683
vn 2.702413 0.006771 0.765377
v 0.022379 -0.000000 0.130102
vn 5.811119 1.585648 1.414790
v 0.029190 0.009706 0.102367
vn 2.700907 -1.447897 0.791395
v 0.020833 -0.016367 0.122442
vn 2.622704 0.446447 0.709782
v 0.022120 0.007888 0.128687
vn 0.080151 2.231875 0.036447
v 0.006840 0.032354 0.020731
vn 0.413625 3.245645 0.147833
v 0.013762 0.031419 0.040576
vn 1.730823 5.901268 0.527794
v 0.013617 0.029147 0.074633
vn 3.752495 4.776701 0.795606
v 0.025997 0.023023 0.074876
vn 0.195940 6.210088 0.718948
v 0.000560 0.027786 0.101632
vn 1.490474 2.996440 0.503272
v 0.027155 0.023699 0.067422
vn 3.011546 1.480201 0.557837
v 0.033281 0.013716 0.075183
vn 4.986952 3.378749 1.287389
v 0.026044 0.016923 0.102102
vn 3.506921 4.935537 1.048636
v 0.020794 0.022437 0.101806
vn 1.764118 5.867724 0.830310
v 0.012614 0.026325 0.101591
vn 2.747380 1.199733 0.713367
v 0.021284 0.014254 0.124375
vn 2.308576 2.465951 0.690410
v 0.018250 0.019762 0.119179
vn 1.144802 3.310422 0.525944
v 0.010704 0.024776 0.115224
vn 2.101506 -2.684069 0.683449
v 0.017695 -0.020995 0.118128
vn 0.982443 -3.311562 0.545040
v 0.010711 -0.024784 0.115226
# 107 vertices, 0 vertices normals

f 1//1 4//4 3//3
f 1//1 6//6 5//5
f 1//1 8//8 7//7
f 9//9 10//10 11//11
f 21//21 22//22 19//19
f 21//21 23//23 22//22
f 28//28 29//29 26//26
f 23//23 24//24 22//22
f 29//29 30//30 26//26
f 27//27 28//28 26//26
f 25//25 27//27 26//26
f 30//30 31//31 64//64
f 31//31 30//30 29//29
f 32//32 29//29 28//28
f 33//33 29//29 32//32
f 31//31 29//29 33//33
f 34//34 28//28 27//27
f 34//34 32//32 28//28
f 35//35 27//27 25//25
f 35//35 34//34 27//27
f 36//36 25//25 24//24
f 36//36 35//35 25//25
f 36//36 24//24 23//23
f 37//37 23//23 21//21
f 37//37 36//36 23//23
f 38//38 21//21 20//20
f 19//19 20//20 21//21
f 38//38 37//37 21//21
f 38//38 20//20 39//39
f 44//44 35//35 36//36
f 40//40 32//32 34//34
f 40//40 34//34 43//43
f 41//41 33//33 32//32
f 42//42 34//34 35//35
f 42//42 35//35 44//44
f 44//44 36//36 45//45
f 45//45 37//37 46//46
f 46//46 38//38 39//39
f 49//49 45//45 46//46
f 50//50 44//44 45//45
f 49//49 50//50 45//45
f 51//51 42//42 44//44
f 50//50 51//51 44//44
f 52//52 43//43 42//42
f 51//51 52//52 42//42
f 53//53 40//40 43//43
f 52//52 53//53 43//43
f 54//54 40//40 53//53
f 41//41 40//40 54//54
f 61//61 58//58 55//55
f 59//59 60//60 58//58
f 61//61 59//59 58//58
f 69//69 58//58 60//60
f 62//62 63//63 60//60
f 59//59 62//62 60//60
f 64//64 33//33 63//63
f 62//62 64//64 63//63
f 70//70 63//63 71//71
f 64//64 31//31 33//33
f 65//65 64//64 62//62
f 65//65 62//62 59//59
f 66//66 59//59 61//61
f 66//66 65//65 59//59
f 95//95 96//96 94//94
f 93//93 57//57 94//94
f 68//68 55//55 58//58
f 69//69 60//60 70//70
f 71//71 33//33 41//41
f 41//41 32//32 40//40
f 70//70 60//60 63//63
f 71//71 63//63 33//33
f 43//43 34//34 42//42
f 45//45 36//36 37//37
f 68//68 69//69 73//73
f 71//71 75//75 74//74
f 70//70 71//71 74//74
f 41//41 54//54 75//75
f 71//71 41//41 75//75
f 69//69 70//70 73//73
f 70//70 74//74 73//73
f 97//97 95//95 56//56
f 20//20 85//85 39//39
f 77//77 78//78 76//76
f 79//79 76//76 78//78
f 83//83 82//82 81//81
f 80//80 79//79 78//78
f 84//84 83//83 81//81
f 101//101 100//100 96//96
f 88//88 83//83 87//87
f 89//89 88//88 87//87
f 90//90 89//89 87//87
f 92//92 89//89 90//90
f 93//93 67//67 57//57
f 96//96 98//98 94//94
f 97//97 102//102 95//95
f 90//90 84//84 99//99
f 90//90 87//87 84//84
f 84//84 87//87 83//83
f 86//86 20//20 19//19
f 100//100 90//90 99//99
f 102//102 96//96 95//95
f 102//102 101//101 96//96
f 92//92 90//90 100//100
f 103//103 100//100 101//101
f 103//103 92//92 100//100
f 104//104 101//101 102//102
f 104//104 103//103 101//101
f 91//91 82//82 83//83
f 88//88 91//91 83//83
f 105//105 104//104 102//102
f 68//68 73//73 72//72
f 85//85 77//77 76//76
f 85//85 76//76 39//39
f 48//48 46//46 39//39
f 66//66 57//57 67//67
f 65//65 30//30 64//64
f 66//66 61//61 57//57
f 57//57 61//61 56//56
f 61//61 55//55 56//56
f 86//86 85//85 20//20
f 9//9 17//17 15//15
f 16//16 11//11 10//10
f 16//16 10//10 8//8
f 79//79 48//48 76//76
f 9//9 18//18 14//14
f 9//9 12//12 13//13
f 3//3 13//13 12//12
f 3//3 12//12 2//2
f 4//4 18//18 13//13
f 4//4 13//13 3//3
f 9//9 11//11 12//12
f 8//8 10//10 15//15
f 8//8 15//15 7//7
f 1//1 16//16 8//8
f 7//7 15//15 17//17
f 7//7 17//17 6//6
f 5//5 14//14 18//18
f 5//5 18//18 4//4
f 1//1 5//5 4//4
f 1//1 7//7 6//6
f 9//9 13//13 18//18
f 1//1 2//2 16//16
f 56//56 55//55 68//68
f 105//105 102//102 97//97
f 2//2 12//12 11//11
f 2//2 11//11 16//16
f 1//1 3//3 2//2
f 9//9 14//14 17//17
f 9//9 15//15 10//10
f 106//106 80//80 82//82
f 107//107 79//79 80//80
f 106//106 107//107 80//80
f 6//6 17//17 14//14
f 6//6 14//14 5//5
f 47//47 79//79 107//107
f 47//47 48//48 79//79
f 48//48 39//39 76//76
f 46//46 37//37 38//38
f 97//97 56//56 68//68
f 68//68 58//58 69//69
f 56//56 94//94 57//57
f 95//95 94//94 56//56
f 72//72 105//105 97//97
f 91//91 106//106 82//82
f 72//72 97//97 68//68
f 49//49 46//46 48//48
f 47//47 49//49 48//48
f 25//25 26//26 22//22
f 24//24 25//25 22//22
f 100//100 99//99 96//96
f 96//96 99//99 98//98
f 82//82 78//78 81//81
f 82//82 80//80 78//78
f 77//77 81//81 78//78
# 174 faces, 0 coords texture

# End of File
