####
#
# OBJ File Generated by Meshlab
#
####
# Object icub_simple_collision_r_hip_1.obj
#
# Vertices: 16
# Faces: 28
#
####
vn -1.111453 2.680787 -2.355542
v -0.014542 0.035154 -0.044000
vn -2.682249 1.109990 -2.356861
v -0.035107 0.014561 -0.044000
vn 1.111453 -2.680787 -2.355542
v 0.014542 -0.035154 -0.044000
vn 2.682248 -1.109991 -2.356858
v 0.035107 -0.014561 -0.044000
vn 2.682251 1.109991 -2.356866
v 0.035107 0.014561 -0.044000
vn -2.682249 -1.109983 2.356849
v -0.035107 -0.014561 -0.031000
vn -1.111459 -2.680779 2.355524
v -0.014542 -0.035154 -0.031000
vn -1.111448 -2.680789 -2.355545
v -0.014542 -0.035154 -0.044000
vn -2.682243 -1.109999 -2.356853
v -0.035107 -0.014561 -0.044000
vn 1.111450 2.680787 -2.355541
v 0.014542 0.035154 -0.044000
vn 2.682246 1.109985 2.356841
v 0.035107 0.014561 -0.031000
vn 2.682243 -1.109997 2.356847
v 0.035107 -0.014561 -0.031000
vn 1.111442 -2.680787 2.355528
v 0.014542 -0.035154 -0.031000
vn -2.682239 1.110001 2.356841
v -0.035107 0.014561 -0.031000
vn -1.111442 2.680787 2.355528
v -0.014542 0.035154 -0.031000
vn 1.111456 2.680783 2.355531
v 0.014542 0.035154 -0.031000
# 16 vertices, 0 vertices normals

f 7//7 8//8 3//3
f 7//7 3//3 13//13
f 6//6 14//14 2//2
f 6//6 2//2 9//9
f 2//2 1//1 10//10
f 2//2 10//10 5//5
f 9//9 2//2 5//5
f 9//9 5//5 4//4
f 9//9 4//4 3//3
f 9//9 3//3 8//8
f 16//16 15//15 14//14
f 11//11 16//16 14//14
f 11//11 14//14 6//6
f 12//12 11//11 6//6
f 7//7 12//12 6//6
f 7//7 13//13 12//12
f 6//6 9//9 8//8
f 6//6 8//8 7//7
f 5//5 10//10 16//16
f 5//5 16//16 11//11
f 1//1 15//15 16//16
f 1//1 16//16 10//10
f 15//15 1//1 2//2
f 15//15 2//2 14//14
f 11//11 12//12 4//4
f 11//11 4//4 5//5
f 13//13 3//3 4//4
f 13//13 4//4 12//12
# 28 faces, 0 coords texture

# End of File
