####
#
# OBJ File Generated by Meshlab
#
####
# Object icub_simple_collision_neck_1.obj
#
# Vertices: 16
# Faces: 28
#
####
vn -0.000000 2.902450 -2.356189
v 0.000000 0.015000 -0.038500
vn -2.052347 2.052347 -2.356200
v -0.010607 0.010607 -0.038500
vn 0.000000 -2.902450 -2.356189
v 0.000000 -0.015000 -0.038500
vn 2.902450 0.000000 -2.356189
v 0.015000 0.000000 -0.038500
vn 2.052347 2.052347 -2.356200
v 0.010607 0.010607 -0.038500
vn -0.000003 2.902449 2.356187
v 0.000000 0.015000 0.038500
vn -2.052347 2.052353 2.356209
v -0.010606 0.010607 0.038500
vn 2.902450 -0.000000 2.356189
v 0.015000 0.000000 0.038500
vn 2.052347 2.052347 2.356200
v 0.010607 0.010607 0.038500
vn 2.052347 -2.052347 -2.356200
v 0.010607 -0.010607 -0.038500
vn -2.052347 -2.052347 -2.356200
v -0.010607 -0.010607 -0.038500
vn -2.902450 0.000000 -2.356189
v -0.015000 0.000000 -0.038500
vn 2.052347 -2.052347 2.356200
v 0.010607 -0.010607 0.038500
vn -0.000006 -2.902447 2.356185
v 0.000000 -0.015000 0.038500
vn -2.052353 -2.052347 2.356209
v -0.010607 -0.010606 0.038500
vn -2.902446 0.000004 2.356183
v -0.015000 0.000000 0.038500
# 16 vertices, 0 vertices normals

f 9//9 6//6 7//7
f 16//16 9//9 7//7
f 16//16 8//8 9//9
f 16//16 15//15 8//8
f 15//15 13//13 8//8
f 15//15 14//14 13//13
f 1//1 5//5 2//2
f 5//5 12//12 2//2
f 5//5 4//4 12//12
f 4//4 11//11 12//12
f 4//4 10//10 11//11
f 10//10 3//3 11//11
f 13//13 10//10 4//4
f 13//13 4//4 8//8
f 14//14 3//3 10//10
f 14//14 10//10 13//13
f 1//1 6//6 9//9
f 1//1 9//9 5//5
f 14//14 15//15 11//11
f 14//14 11//11 3//3
f 6//6 1//1 2//2
f 6//6 2//2 7//7
f 8//8 4//4 5//5
f 8//8 5//5 9//9
f 16//16 12//12 11//11
f 16//16 11//11 15//15
f 16//16 7//7 2//2
f 16//16 2//2 12//12
# 28 faces, 0 coords texture

# End of File
