####
#
# OBJ File Generated by Meshlab
#
####
# Object icub_simple_collision_neck_2.obj
#
# Vertices: 16
# Faces: 28
#
####
vn -0.000000 2.902450 -2.356189
v 0.000000 0.015000 -0.016500
vn -2.052347 2.052347 -2.356199
v -0.010607 0.010607 -0.016500
vn 0.000000 -2.902450 -2.356189
v 0.000000 -0.015000 -0.016500
vn -0.000002 2.902449 2.356188
v 0.000000 0.015000 0.016500
vn -2.052347 2.052354 2.356211
v -0.010606 0.010607 0.016500
vn -0.000005 -2.902447 2.356186
v 0.000000 -0.015000 0.016500
vn 2.902450 -0.000000 2.356189
v 0.015000 0.000000 0.016500
vn 2.052347 2.052347 2.356200
v 0.010607 0.010607 0.016500
vn 2.052347 2.052347 -2.356200
v 0.010607 0.010607 -0.016500
vn 2.902450 0.000000 -2.356189
v 0.015000 0.000000 -0.016500
vn 2.052347 -2.052347 -2.356200
v 0.010607 -0.010607 -0.016500
vn -2.052347 -2.052346 -2.356199
v -0.010607 -0.010607 -0.016500
vn -2.902449 -0.000001 -2.356188
v -0.015000 0.000000 -0.016500
vn 2.052347 -2.052347 2.356200
v 0.010607 -0.010607 0.016500
vn -2.052354 -2.052346 2.356210
v -0.010607 -0.010606 0.016500
vn -2.902446 0.000003 2.356184
v -0.015000 0.000000 0.016500
# 16 vertices, 0 vertices normals

f 7//7 10//10 9//9
f 7//7 9//9 8//8
f 8//8 4//4 5//5
f 8//8 5//5 16//16
f 7//7 8//8 16//16
f 15//15 7//7 16//16
f 15//15 14//14 7//7
f 15//15 6//6 14//14
f 2//2 1//1 9//9
f 9//9 13//13 2//2
f 9//9 10//10 13//13
f 10//10 12//12 13//13
f 10//10 11//11 12//12
f 11//11 3//3 12//12
f 14//14 11//11 10//10
f 14//14 10//10 7//7
f 6//6 3//3 11//11
f 6//6 11//11 14//14
f 1//1 4//4 8//8
f 1//1 8//8 9//9
f 6//6 15//15 12//12
f 6//6 12//12 3//3
f 4//4 1//1 2//2
f 4//4 2//2 5//5
f 15//15 16//16 13//13
f 15//15 13//13 12//12
f 16//16 5//5 2//2
f 16//16 2//2 13//13
# 28 faces, 0 coords texture

# End of File
