####
#
# OBJ File Generated by Meshlab
#
####
# Object icub_simple_collision_head.obj
#
# Vertices: 192
# Faces: 343
#
####
vn 0.276118 -0.339550 0.136595
v 0.074605 0.030931 0.115243
vn 0.428274 -0.652682 2.810449
v 0.072112 0.033359 0.043552
vn 3.560177 -2.337438 0.158547
v 0.090851 0.061041 0.069046
vn 0.481845 -0.377825 0.053508
v 0.082333 0.023154 0.043857
vn 3.390165 -1.047239 0.049147
v 0.091093 0.061242 0.086110
vn 0.383628 1.746970 2.313553
v 0.074968 0.053419 0.109658
vn 0.778093 2.809564 0.627487
v 0.073583 0.071920 0.081497
vn 0.132165 -0.182195 -0.025289
v 0.072620 0.015723 0.046628
vn 2.130765 2.034049 -4.799263
v 0.083215 0.053696 0.043741
vn 0.508310 1.689765 -2.169754
v 0.070574 0.061535 0.045159
vn 2.996111 -0.916233 -0.480260
v 0.089285 0.050351 0.104283
vn 1.244226 -0.693186 -0.367977
v 0.086733 0.034621 0.041785
vn 0.398835 -0.031144 -2.802800
v 0.070233 0.037064 0.038739
vn 2.925416 3.929803 -2.397657
v 0.085180 0.066102 0.056373
vn 2.320942 -0.185997 2.101564
v 0.087007 0.046368 0.111647
vn 2.835327 3.694799 2.323990
v 0.087829 0.062788 0.094934
vn 3.702813 3.367358 -0.266643
v 0.089947 0.067542 0.070882
vn 0.656564 2.666901 -0.692876
v 0.071264 0.072326 0.063371
vn 2.982830 -0.366277 -0.784972
v 0.089113 0.048856 0.045971
vn 0.372618 -2.577053 -1.589588
v 0.074813 0.055426 0.097424
vn 0.389360 -2.688619 1.138728
v 0.073994 0.059613 0.063112
vn -0.276118 -0.339550 0.136595
v -0.074605 0.030931 0.115243
vn -0.428274 -0.652682 2.810449
v -0.072112 0.033359 0.043552
vn -3.560177 -2.337438 0.158547
v -0.090851 0.061041 0.069046
vn -0.481845 -0.377825 0.053508
v -0.082333 0.023154 0.043857
vn -3.390165 -1.047239 0.049147
v -0.091093 0.061242 0.086110
vn -0.383628 1.746970 2.313553
v -0.074968 0.053419 0.109658
vn -0.778093 2.809564 0.627487
v -0.073583 0.071920 0.081497
vn -0.132165 -0.182195 -0.025289
v -0.072620 0.015723 0.046628
vn -2.130765 2.034049 -4.799263
v -0.083215 0.053696 0.043741
vn -0.508310 1.689765 -2.169754
v -0.070574 0.061535 0.045159
vn -2.996111 -0.916233 -0.480260
v -0.089285 0.050351 0.104283
vn -1.244226 -0.693186 -0.367977
v -0.086733 0.034621 0.041785
vn -0.398835 -0.031144 -2.802800
v -0.070233 0.037064 0.038739
vn -2.925416 3.929803 -2.397657
v -0.085180 0.066102 0.056373
vn -2.320942 -0.185997 2.101564
v -0.087007 0.046368 0.111647
vn -2.835327 3.694799 2.323990
v -0.087829 0.062788 0.094934
vn -3.702813 3.367358 -0.266643
v -0.089947 0.067542 0.070882
vn -0.656564 2.666901 -0.692876
v -0.071264 0.072326 0.063371
vn -2.982830 -0.366277 -0.784972
v -0.089113 0.048856 0.045971
vn -0.372618 -2.577053 -1.589588
v -0.074813 0.055426 0.097424
vn -0.389360 -2.688619 1.138728
v -0.073994 0.059613 0.063112
vn -1.298432 5.575330 1.842163
v -0.020106 0.116021 0.123519
vn 0.295020 5.998009 -0.580390
v 0.003098 0.122062 0.081557
vn -1.522999 5.825940 -0.397311
v -0.027446 0.119018 0.083677
vn -2.528127 0.288828 -2.874107
v -0.059459 0.025166 0.025084
vn -0.133708 0.703104 -3.130483
v -0.004601 0.064613 0.012493
vn -1.379933 0.760822 -3.497006
v -0.035704 0.062417 0.014757
vn -1.317377 5.445507 -2.369013
v -0.022261 0.110873 0.048514
vn -1.662134 2.536011 -5.099507
v -0.032662 0.082366 0.019315
vn -0.684786 4.411956 -4.037299
v -0.015606 0.099969 0.028664
vn -1.826053 4.461371 3.580373
v -0.027307 0.096987 0.154878
vn -2.649171 4.149495 -3.421943
v -0.041360 0.095021 0.034159
vn -1.945725 3.038578 4.797102
v -0.028152 0.078476 0.170839
vn -2.147150 1.579633 5.463569
v -0.032713 0.051619 0.180484
vn -3.562737 0.174836 4.897030
v -0.052945 0.025210 0.174038
vn -4.095857 1.728658 4.037162
v -0.057321 0.051549 0.165055
vn -3.827446 3.251355 3.062000
v -0.055498 0.085512 0.145518
vn -3.498000 4.514491 1.092643
v -0.053369 0.105840 0.111136
vn -3.429420 4.655496 -0.932046
v -0.052890 0.107115 0.073919
vn -4.312696 3.369258 -2.472942
v -0.058321 0.088827 0.045994
vn -3.677915 1.947312 -4.247597
v -0.053727 0.074028 0.027570
vn -1.272044 0.103762 5.882692
v -0.023438 0.025189 0.187646
vn -5.105565 0.818532 3.107313
v -0.067764 0.034762 0.156989
vn -5.152254 2.606638 1.482466
v -0.067948 0.082266 0.124906
vn -5.235687 2.910512 -0.719933
v -0.067656 0.088524 0.072686
vn -5.889732 -0.224281 -1.487075
v -0.073825 0.025122 0.045499
vn -6.044889 0.108264 1.189459
v -0.074418 0.025228 0.139739
vn -5.144536 0.080050 3.277338
v -0.067768 0.025217 0.158049
vn -5.002909 0.237318 -3.384712
v -0.069014 0.025190 0.033848
vn -5.090953 1.255108 -2.751303
v -0.068207 0.061361 0.039612
vn -5.928535 1.264036 -0.584093
v -0.074136 0.070363 0.072246
vn -5.900457 1.122492 1.015087
v -0.074011 0.063519 0.122832
vn -6.098065 -0.506711 -1.349123
v -0.073653 0.017600 0.049191
vn -6.262794 -0.204041 -0.339173
v -0.074183 0.007127 0.059434
vn -6.270244 -0.312575 -0.136540
v -0.074269 0.001207 0.070204
vn -6.267551 -0.097909 0.117737
v -0.075489 0.025192 0.114051
vn -6.261233 -0.465421 0.228725
v -0.074915 0.015444 0.111037
vn -6.266701 -0.422916 0.153347
v -0.074427 0.004712 0.102184
vn -6.265271 -0.435778 -0.021461
v -0.074212 -0.001694 0.081204
vn -6.263399 -0.459522 0.043488
v -0.074269 -0.000728 0.091613
vn 0.003295 -5.390491 1.910075
v -0.000318 -0.076709 0.072532
vn 0.012105 -5.095267 3.195363
v -0.000000 -0.069712 0.153339
vn -0.003166 -5.412221 -2.025457
v -0.000923 -0.080893 0.020884
vn -1.413272 -4.847542 0.703708
v -0.013756 -0.066964 0.075535
vn -0.602253 -0.465393 -3.434898
v -0.023322 -0.046697 0.007947
vn -1.578038 -6.016208 -0.653549
v -0.014807 -0.080352 0.042411
vn -1.249208 -5.921337 -0.051799
v -0.035215 -0.065589 0.083389
vn -0.281258 -5.915433 -0.687681
v -0.003355 -0.081640 0.106496
vn 0.781906 0.115008 6.024384
v 0.014014 0.025201 0.188805
vn -1.292444 -5.691083 0.329237
v -0.019061 -0.080341 0.118344
vn -2.021220 -5.276207 2.193573
v -0.028946 -0.070709 0.141001
vn -1.928593 -4.265796 3.708984
v -0.028028 -0.061367 0.157816
vn -2.134174 -2.902429 4.861702
v -0.030908 -0.044165 0.170177
vn -1.841140 -1.101095 5.666894
v -0.030826 -0.012652 0.181910
vn -3.088034 -4.944963 0.259561
v -0.053547 -0.066457 0.107570
vn -3.913733 -3.609954 2.488068
v -0.056644 -0.051733 0.143634
vn -3.726174 -1.747841 4.269136
v -0.056436 -0.024307 0.165149
vn -3.660512 -2.255813 -3.641787
v -0.056065 -0.056186 0.022134
vn -4.467952 -3.151080 -0.702564
v -0.063473 -0.063625 0.043739
vn -3.840619 -4.663232 0.658829
v -0.059483 -0.060179 0.071302
vn -1.756161 0.465991 -2.864735
v -0.057287 -0.000072 0.022550
vn -1.928909 0.155561 -2.733324
v -0.052495 -0.017971 0.016564
vn -4.205543 -0.468840 -4.091248
v -0.058758 -0.037342 0.020101
vn -5.406223 -3.161633 -0.046397
v -0.068098 -0.047376 0.068240
vn -5.106553 -3.122126 0.277111
v -0.065413 -0.055206 0.097773
vn -5.224396 -0.754186 2.877003
v -0.068794 -0.012889 0.153276
vn -5.773350 -1.016090 -1.270916
v -0.070547 -0.040651 0.044796
vn -5.369230 -1.701039 1.548296
v -0.070890 -0.030489 0.139720
vn -1.153403 0.038013 -3.331193
v -0.040999 -0.035490 0.011618
vn -1.773897 -5.677247 1.643104
v -0.019256 -0.078504 0.055297
vn -2.305608 -5.355205 0.513580
v -0.049530 -0.073571 0.049137
vn -2.750726 -4.682597 -2.096785
v -0.051590 -0.070373 0.034386
vn -1.161658 -3.855147 -3.850023
v -0.010953 -0.075391 0.013494
vn -2.049782 -1.236623 -5.479999
v -0.041423 -0.048973 0.011611
vn 1.282123 5.601901 1.737177
v 0.020106 0.116021 0.123519
vn 0.238115 5.726903 -2.182732
v 0.001276 0.114008 0.051742
vn 0.016500 5.981490 1.290582
v 0.000001 0.119492 0.116078
vn 0.069719 2.700136 -5.368605
v 0.000000 0.085513 0.016990
vn 0.004030 5.012192 3.458687
v 0.000000 0.103322 0.152549
vn 0.451885 0.681188 -3.081053
v 0.020264 0.063992 0.012829
vn 2.299622 0.704530 -3.358196
v 0.050870 0.059039 0.021351
vn 1.635019 2.511367 -5.064054
v 0.032662 0.082366 0.019315
vn 1.119376 4.847574 -3.226592
v 0.021859 0.105140 0.036627
vn 1.974115 4.626524 3.373086
v 0.029805 0.098960 0.150507
vn 0.357888 3.762750 4.712768
v 0.005580 0.087541 0.169541
vn 2.200434 5.394433 -0.974687
v 0.039949 0.114252 0.075195
vn 2.677281 4.137927 -3.393396
v 0.041360 0.095021 0.034159
vn 0.176441 2.051609 5.609017
v 0.003214 0.063569 0.183619
vn 2.314423 3.140843 4.644031
v 0.032910 0.079819 0.167236
vn 2.156553 1.547900 5.464153
v 0.032713 0.051619 0.180484
vn 4.115231 1.714725 4.031275
v 0.057321 0.051549 0.165055
vn 3.876932 3.236102 3.054806
v 0.055498 0.085512 0.145518
vn 3.474854 4.535262 1.093435
v 0.053369 0.105840 0.111136
vn 4.060254 4.343648 -0.388631
v 0.056274 0.105033 0.083582
vn 4.305918 3.311035 -2.360675
v 0.058321 0.088827 0.045994
vn 3.772700 2.152735 -4.104584
v 0.053727 0.074028 0.027570
vn 3.280595 0.180397 5.032216
v 0.050221 0.025221 0.176270
vn 5.105565 0.818532 3.107313
v 0.067764 0.034762 0.156989
vn 5.152254 2.606638 1.482466
v 0.067948 0.082266 0.124906
vn 5.196649 2.887647 -0.838616
v 0.067656 0.088524 0.072686
vn 5.740934 -0.302347 -1.694938
v 0.074334 0.025364 0.047085
vn 6.044929 0.109588 1.190699
v 0.074418 0.025228 0.139739
vn 5.111405 0.076477 3.309812
v 0.067768 0.025217 0.158049
vn 2.678625 0.036824 -2.268342
v 0.059459 0.025166 0.025084
vn 5.008585 0.933182 -2.974623
v 0.068333 0.051421 0.035828
vn 5.875556 1.315515 -0.705682
v 0.074136 0.070363 0.072246
vn 5.900457 1.122492 1.015087
v 0.074011 0.063519 0.122832
vn 5.957467 -0.613930 -1.782864
v 0.073653 0.017600 0.049191
vn 5.272915 -0.161105 -3.357031
v 0.068291 0.025198 0.036374
vn 6.262242 -0.257116 -0.342387
v 0.074183 0.007127 0.059434
vn 6.270244 -0.312575 -0.136540
v 0.074269 0.001207 0.070204
vn 6.267750 -0.099148 0.125812
v 0.075489 0.025192 0.114051
vn 6.261920 -0.453610 0.244641
v 0.074915 0.015444 0.111037
vn 6.267230 -0.413935 0.142909
v 0.074505 0.006281 0.104419
vn 6.263321 -0.468395 0.053335
v 0.074270 0.000039 0.093647
vn 6.263266 -0.454468 -0.004169
v 0.074212 -0.001694 0.081204
vn -0.079964 -0.195585 -3.417603
v -0.000000 -0.050397 0.005660
vn 0.073637 -4.219693 0.734331
v -0.000000 -0.089536 0.056149
vn 0.109886 -3.572769 4.823020
v 0.001599 -0.052373 0.171908
vn 1.281037 -4.869522 0.582390
v 0.013756 -0.066964 0.075535
vn -0.027662 -1.809450 5.702198
v -0.000000 -0.030520 0.183113
vn 0.635333 -0.348670 -3.454174
v 0.023322 -0.046697 0.007947
vn 0.682870 -6.010555 -1.187912
v 0.003841 -0.083126 0.040780
vn 1.280178 -5.920200 -0.029567
v 0.035215 -0.065589 0.083389
vn 2.593873 -5.530902 -1.054889
v 0.001330 -0.077176 0.089660
vn 0.907530 -5.749841 1.700610
v 0.014554 -0.077617 0.132246
vn 1.651519 -5.725758 -0.142537
v 0.025238 -0.078230 0.114990
vn 2.045583 -4.551046 3.308677
v 0.030474 -0.063406 0.153293
vn 2.038192 -3.048544 4.787948
v 0.029701 -0.045956 0.169713
vn 1.912978 -1.139766 5.658012
v 0.030826 -0.012652 0.181910
vn 3.181074 -4.888535 0.183093
v 0.053547 -0.066457 0.107570
vn 3.379322 -4.640329 1.670990
v 0.047769 -0.065552 0.130138
vn 4.047461 -3.342103 2.710363
v 0.057175 -0.047172 0.148134
vn 3.727812 -1.705923 4.304864
v 0.056436 -0.024307 0.165149
vn 3.518965 -2.154902 -3.737409
v 0.056065 -0.056186 0.022134
vn 4.467965 -3.151071 -0.702572
v 0.063473 -0.063625 0.043739
vn 3.840624 -4.663227 0.658835
v 0.059483 -0.060179 0.071302
vn 2.682378 -0.011831 -2.113494
v 0.057287 -0.000072 0.022550
vn 2.126080 0.195544 -2.594444
v 0.052495 -0.017971 0.016564
vn 4.235138 -0.482261 -4.047697
v 0.058758 -0.037342 0.020101
vn 5.406223 -3.161633 -0.046397
v 0.068098 -0.047376 0.068240
vn 5.090756 -3.121104 0.334581
v 0.065413 -0.055206 0.097773
vn 5.224396 -0.754186 2.877003
v 0.068794 -0.012889 0.153276
vn 5.765006 -0.978719 -1.290779
v 0.070547 -0.040651 0.044796
vn 5.348868 -1.767858 1.489534
v 0.070890 -0.030489 0.139720
vn 1.393017 -0.576421 -3.070216
v 0.041311 -0.035529 0.010255
vn 1.619771 -5.727641 1.643260
v 0.019256 -0.078504 0.055297
vn 2.306175 -5.353913 0.505660
v 0.049530 -0.073571 0.049137
vn 2.751229 -4.696116 -2.071705
v 0.051590 -0.070373 0.034386
vn 1.543400 -4.085834 -3.642991
v 0.016222 -0.074282 0.014720
vn 0.352015 -1.954432 -5.402717
v 0.004676 -0.065492 0.006414
# 192 vertices, 0 vertices normals

f 3//3 21//21 19//19
f 10//10 9//9 13//13
f 7//7 16//16 17//17
f 5//5 20//20 21//21
f 2//2 8//8 4//4
f 9//9 19//19 13//13
f 14//14 18//18 17//17
f 7//7 6//6 16//16
f 19//19 17//17 3//3
f 11//11 20//20 5//5
f 10//10 14//14 9//9
f 5//5 21//21 3//3
f 19//19 21//21 12//12
f 27//27 36//36 22//22
f 10//10 18//18 14//14
f 12//12 2//2 4//4
f 17//17 5//5 3//3
f 12//12 4//4 13//13
f 18//18 7//7 17//17
f 19//19 12//12 13//13
f 14//14 17//17 19//19
f 36//36 32//32 22//22
f 32//32 41//41 22//22
f 16//16 15//15 11//11
f 9//9 14//14 19//19
f 12//12 21//21 2//2
f 17//17 16//16 5//5
f 5//5 16//16 11//11
f 15//15 16//16 6//6
f 8//8 13//13 4//4
f 24//24 40//40 42//42
f 31//31 34//34 30//30
f 28//28 38//38 37//37
f 26//26 42//42 41//41
f 23//23 25//25 29//29
f 30//30 34//34 40//40
f 35//35 38//38 39//39
f 28//28 37//37 27//27
f 40//40 24//24 38//38
f 32//32 26//26 41//41
f 31//31 30//30 35//35
f 26//26 24//24 42//42
f 40//40 33//33 42//42
f 31//31 35//35 39//39
f 33//33 25//25 23//23
f 38//38 24//24 26//26
f 33//33 34//34 25//25
f 39//39 38//38 28//28
f 40//40 34//34 33//33
f 35//35 40//40 38//38
f 37//37 32//32 36//36
f 30//30 40//40 35//35
f 33//33 23//23 42//42
f 38//38 26//26 37//37
f 26//26 32//32 37//37
f 36//36 27//27 37//37
f 29//29 25//25 34//34
f 67//67 74//74 75//75
f 75//75 77//77 67//67
f 72//72 67//67 77//77
f 45//45 118//118 44//44
f 72//72 66//66 71//71
f 52//52 126//126 120//120
f 73//73 65//65 72//72
f 72//72 65//65 66//66
f 65//65 58//58 59//59
f 43//43 120//120 118//118
f 49//49 45//45 44//44
f 60//60 45//45 49//49
f 51//51 119//119 50//50
f 71//71 66//66 61//61
f 66//66 60//60 61//61
f 58//58 54//54 52//52
f 60//60 59//59 45//45
f 62//62 53//53 50//50
f 119//119 48//48 50//50
f 119//119 47//47 48//48
f 53//53 51//51 50//50
f 62//62 50//50 48//48
f 54//54 126//126 52//52
f 57//57 55//55 54//54
f 58//58 57//57 54//54
f 61//61 60//60 53//53
f 53//53 60//60 49//49
f 61//61 53//53 62//62
f 56//56 63//63 55//55
f 55//55 129//129 54//54
f 55//55 63//63 129//129
f 64//64 69//69 57//57
f 56//56 57//57 69//69
f 71//71 61//61 62//62
f 73//73 72//72 77//77
f 71//71 46//46 70//70
f 76//76 77//77 75//75
f 71//71 70//70 67//67
f 80//80 77//77 76//76
f 80//80 81//81 77//77
f 79//79 78//78 77//77
f 66//66 65//65 59//59
f 66//66 59//59 60//60
f 72//72 71//71 67//67
f 122//122 146//146 145//145
f 90//90 129//129 63//63
f 71//71 62//62 46//46
f 64//64 57//57 58//58
f 64//64 68//68 69//69
f 64//64 73//73 68//68
f 90//90 138//138 131//131
f 64//64 65//65 73//73
f 65//65 64//64 58//58
f 77//77 81//81 79//79
f 59//59 52//52 43//43
f 58//58 52//52 59//59
f 117//117 51//51 49//49
f 53//53 49//49 51//51
f 120//120 43//43 52//52
f 54//54 129//129 126//126
f 55//55 57//57 56//56
f 59//59 43//43 45//45
f 44//44 117//117 49//49
f 43//43 118//118 45//45
f 77//77 68//68 73//73
f 142//142 149//149 150//150
f 142//142 151//151 149//149
f 151//151 142//142 153//153
f 147//147 153//153 142//142
f 147//147 146//146 141//141
f 117//117 124//124 51//51
f 131//131 130//130 129//129
f 148//148 147//147 140//140
f 147//147 141//141 140//140
f 140//140 134//134 133//133
f 146//146 122//122 137//137
f 116//116 118//118 120//120
f 117//117 44//44 124//124
f 124//124 44//44 127//127
f 124//124 123//123 119//119
f 51//51 124//124 119//119
f 146//146 136//136 141//141
f 141//141 136//136 135//135
f 126//126 130//130 125//125
f 133//133 125//125 130//130
f 135//135 127//127 134//134
f 137//137 123//123 128//128
f 119//119 123//123 121//121
f 128//128 123//123 124//124
f 137//137 122//122 123//123
f 132//132 130//130 131//131
f 139//139 133//133 132//132
f 133//133 130//130 132//132
f 136//136 128//128 127//127
f 136//136 127//127 135//135
f 128//128 124//124 127//127
f 136//136 137//137 128//128
f 130//130 126//126 129//129
f 139//139 144//144 143//143
f 139//139 132//132 144//144
f 138//138 144//144 132//132
f 146//146 137//137 136//136
f 148//148 153//153 147//147
f 153//153 155//155 156//156
f 152//152 151//151 153//153
f 15//15 1//1 11//11
f 157//157 152//152 153//153
f 155//155 153//153 154//154
f 141//141 134//134 140//140
f 141//141 135//135 134//134
f 147//147 142//142 146//146
f 62//62 48//48 46//46
f 139//139 143//143 148//148
f 157//157 153//153 156//156
f 139//139 148//148 140//140
f 134//134 116//116 125//125
f 133//133 134//134 125//125
f 123//123 122//122 121//121
f 119//119 121//121 47//47
f 120//120 126//126 125//125
f 120//120 125//125 116//116
f 131//131 138//138 132//132
f 127//127 44//44 116//116
f 134//134 127//127 116//116
f 116//116 44//44 118//118
f 153//153 148//148 143//143
f 131//131 129//129 90//90
f 140//140 133//133 139//139
f 11//11 1//1 20//20
f 145//145 146//146 150//150
f 146//146 142//142 150//150
f 6//6 1//1 15//15
f 76//76 75//75 108//108
f 70//70 46//46 102//102
f 107//107 69//69 68//68
f 69//69 107//107 98//98
f 68//68 79//79 109//109
f 162//162 90//90 95//95
f 77//77 78//78 68//68
f 105//105 106//106 108//108
f 56//56 98//98 95//95
f 93//93 160//160 94//94
f 109//109 106//106 97//97
f 92//92 93//93 97//97
f 96//96 97//97 106//106
f 91//91 92//92 96//96
f 68//68 109//109 107//107
f 115//115 103//103 110//110
f 104//104 103//103 115//115
f 115//115 110//110 86//86
f 70//70 108//108 74//74
f 192//192 115//115 86//86
f 158//158 192//192 86//86
f 81//81 80//80 108//108
f 93//93 92//92 83//83
f 115//115 99//99 104//104
f 115//115 114//114 99//99
f 114//114 115//115 192//192
f 82//82 89//89 85//85
f 108//108 104//104 99//99
f 91//91 96//96 89//89
f 106//106 109//109 108//108
f 79//79 68//68 78//78
f 108//108 109//109 81//81
f 99//99 100//100 108//108
f 113//113 99//99 114//114
f 113//113 114//114 84//84
f 99//99 113//113 100//100
f 112//112 113//113 84//84
f 84//84 87//87 112//112
f 79//79 81//81 109//109
f 162//162 94//94 160//160
f 113//113 112//112 100//100
f 87//87 84//84 164//164
f 92//92 91//91 83//83
f 91//91 89//89 167//167
f 159//159 87//87 164//164
f 93//93 94//94 97//97
f 105//105 108//108 100//100
f 87//87 111//111 112//112
f 96//96 92//92 97//97
f 111//111 87//87 159//159
f 107//107 109//109 98//98
f 101//101 100//100 112//112
f 97//97 98//98 109//109
f 83//83 91//91 167//167
f 106//106 105//105 101//101
f 94//94 95//95 98//98
f 98//98 56//56 69//69
f 100//100 101//101 105//105
f 98//98 97//97 94//94
f 89//89 82//82 166//166
f 159//159 82//82 111//111
f 101//101 96//96 106//106
f 111//111 85//85 88//88
f 112//112 111//111 88//88
f 96//96 101//101 88//88
f 88//88 85//85 89//89
f 85//85 111//111 82//82
f 83//83 160//160 93//93
f 95//95 94//94 162//162
f 112//112 88//88 101//101
f 88//88 89//89 96//96
f 143//143 184//184 186//186
f 171//171 138//138 90//90
f 143//143 186//186 155//155
f 175//175 144//144 138//138
f 144//144 175//175 184//184
f 162//162 171//171 90//90
f 157//157 185//185 152//152
f 182//182 185//185 183//183
f 185//185 156//156 186//186
f 186//186 173//173 183//183
f 172//172 183//183 173//173
f 168//168 172//172 173//173
f 150//150 179//179 145//145
f 155//155 186//186 156//156
f 181//181 187//187 180//180
f 150//150 149//149 185//185
f 163//163 187//187 192//192
f 158//158 163//163 192//192
f 185//185 181//181 150//150
f 138//138 171//171 175//175
f 83//83 169//169 160//160
f 187//187 181//181 176//176
f 176//176 192//192 187//187
f 192//192 176//176 191//191
f 166//166 168//168 89//89
f 192//192 191//191 114//114
f 167//167 89//89 168//168
f 185//185 176//176 181//181
f 168//168 166//166 172//172
f 183//183 185//185 186//186
f 170//170 160//160 169//169
f 173//173 167//167 168//168
f 152//152 185//185 151//151
f 114//114 191//191 84//84
f 176//176 185//185 177//177
f 190//190 191//191 176//176
f 184//184 143//143 144//144
f 191//191 190//190 84//84
f 176//176 177//177 190//190
f 153//153 143//143 154//154
f 189//189 84//84 190//190
f 84//84 189//189 164//164
f 174//174 169//169 173//173
f 162//162 160//160 170//170
f 190//190 177//177 189//189
f 169//169 83//83 167//167
f 151//151 185//185 149//149
f 169//169 174//174 170//170
f 182//182 177//177 185//185
f 173//173 186//186 174//174
f 164//164 189//189 188//188
f 188//188 159//159 164//164
f 167//167 173//173 169//169
f 184//184 175//175 186//186
f 178//178 189//189 177//177
f 174//174 186//186 175//175
f 183//183 178//178 182//182
f 170//170 175//175 171//171
f 177//177 182//182 178//178
f 175//175 170//170 174//174
f 159//159 188//188 82//82
f 181//181 180//180 150//150
f 155//155 154//154 143//143
f 178//178 183//183 172//172
f 188//188 165//165 161//161
f 189//189 165//165 188//188
f 172//172 165//165 178//178
f 82//82 161//161 166//166
f 165//165 166//166 161//161
f 161//161 82//82 188//188
f 171//171 162//162 170//170
f 179//179 150//150 180//180
f 156//156 185//185 157//157
f 189//189 178//178 165//165
f 165//165 172//172 166//166
f 80//80 76//76 108//108
f 102//102 103//103 70//70
f 104//104 70//70 103//103
f 108//108 70//70 104//104
f 75//75 74//74 108//108
f 95//95 90//90 63//63
f 95//95 63//63 56//56
f 74//74 67//67 70//70
# 343 faces, 0 coords texture

# End of File
