####
#
# OBJ File Generated by Meshlab
#
####
# Object icub_simple_collision_l_foot.obj
#
# Vertices: 67
# Faces: 106
#
####
vn 0.000000 0.000000 -6.283185
v 0.000000 0.000000 -0.035000
vn 0.566244 2.846682 -2.356193
v 0.005166 0.025972 -0.035000
vn -1.612516 2.413302 -2.356194
v -0.014712 0.022018 -0.035000
vn -2.846682 0.566240 -2.356193
v -0.025972 0.005166 -0.035000
vn -0.566241 -2.846683 -2.356193
v -0.005166 -0.025972 -0.035000
vn 1.612516 -2.413302 -2.356195
v 0.014712 -0.022018 -0.035000
vn 2.846683 -0.566240 -2.356193
v 0.025972 -0.005166 -0.035000
vn 2.413304 1.612516 -2.356198
v 0.022018 0.014712 -0.035000
vn 0.000000 0.000000 6.283185
v 0.000000 -0.000000 0.060000
vn 0.566245 2.846684 2.356196
v 0.005166 0.025972 0.060000
vn -1.612509 2.413306 2.356194
v -0.014712 0.022018 0.060000
vn -2.413305 -1.612516 2.356199
v -0.022018 -0.014712 0.060000
vn 1.612516 -2.413302 2.356195
v 0.014712 -0.022018 0.060000
vn 2.846683 -0.566244 2.356195
v 0.025972 -0.005166 0.060000
vn 2.413303 1.612512 2.356192
v 0.022018 0.014712 0.060000
vn -2.413302 -1.612518 -2.356195
v -0.022018 -0.014712 -0.035000
vn -0.566244 -2.846681 2.356191
v -0.005166 -0.025972 0.060000
vn -2.846680 0.566243 2.356190
v -0.025972 0.005166 0.060000
vn 2.790887 -1.764385 1.187116
v -0.012182 -0.020548 0.060995
vn 5.490670 -1.443838 2.440177
v -0.020669 -0.010105 0.089984
vn 1.671782 -4.095463 2.104885
v -0.027660 -0.028571 0.084085
vn 5.539088 0.920307 2.595148
v -0.019806 0.008922 0.089999
vn 3.003959 4.495174 1.553520
v -0.019668 0.026093 0.073129
vn 5.250360 2.012833 2.567412
v -0.012880 0.016219 0.071366
vn 5.551210 -0.397822 2.747488
v -0.012824 0.000000 0.075927
vn 2.367727 -0.174052 1.321977
v -0.004065 -0.000000 0.061568
vn 1.798308 3.309296 2.262825
v -0.027955 0.024074 0.097529
vn -0.591282 -3.630140 -0.109770
v -0.032077 -0.029505 -0.010000
vn -2.345923 -2.531212 -1.369760
v -0.041001 -0.027466 -0.029373
vn 0.051233 -3.696780 -0.200367
v -0.032782 -0.029488 0.009872
vn -2.890205 -3.130788 -0.036212
v -0.041000 -0.031040 0.032588
vn -2.509049 -2.864667 0.817030
v -0.041021 -0.030174 0.077946
vn 1.091485 -6.137129 0.203437
v -0.025578 -0.029892 0.045801
vn 0.296704 -3.505661 -0.092011
v -0.025806 -0.029956 0.021859
vn -2.250216 -0.571222 2.691318
v -0.041032 -0.003727 0.108876
vn -2.267567 2.167396 1.741958
v -0.040999 0.022268 0.099361
vn 2.432448 0.048798 4.201751
v -0.028405 -0.000010 0.108433
vn 2.285330 1.616309 4.233249
v -0.028385 0.009924 0.105836
vn 1.266493 -2.509401 2.823036
v -0.028240 -0.015316 0.103642
vn 0.421187 6.094279 0.473549
v -0.026008 0.029958 0.051347
vn -3.140142 3.138794 0.063748
v -0.041000 0.029881 0.032588
vn 0.119436 3.490366 -0.024096
v -0.025998 0.030000 0.022799
vn -0.146299 3.627566 -0.091180
v -0.032253 0.029595 -0.010000
vn 0.026692 3.664136 -0.024044
v -0.032711 0.029675 0.010534
vn -2.299088 2.599525 -1.228164
v -0.041000 0.028740 -0.028170
vn 0.173879 3.313883 -0.752897
v -0.025994 0.029111 -0.021043
vn 1.419991 3.712664 0.399680
v -0.016506 0.026946 0.056309
vn 2.621074 1.967281 0.949208
v -0.011230 0.022057 0.061274
vn 0.457250 2.226596 0.026098
v -0.016186 0.028176 0.031305
vn 1.695401 -3.510797 0.423960
v -0.016554 -0.026511 0.055931
vn 0.483418 -2.167602 0.033573
v -0.016011 -0.028010 0.029597
vn 0.301074 -0.031543 -6.167022
v -0.010765 -0.000183 -0.044368
vn 0.663371 -0.030057 -6.229003
v -0.025999 0.000000 -0.044997
vn -0.110998 -2.301671 -5.567411
v -0.026001 -0.010186 -0.043926
vn 0.423597 1.580216 -6.008073
v -0.025959 0.009898 -0.044026
vn 0.169383 -1.704495 -3.390900
v -0.012596 -0.016106 -0.040725
vn 0.105625 -4.652627 -3.868692
v -0.025961 -0.023512 -0.034068
vn 0.158424 -2.222441 -1.191358
v -0.017174 -0.026596 -0.027145
vn 0.049560 -3.248367 -0.920960
v -0.024072 -0.028712 -0.021717
vn 0.131891 0.000667 -2.027671
v 0.007122 0.000000 -0.043205
vn 0.076934 -0.375890 -2.596621
v 0.001905 -0.008400 -0.042803
vn -2.133157 0.012435 -2.757445
v -0.041001 0.000700 -0.047576
vn 0.278043 1.622047 -3.425063
v -0.012446 0.015914 -0.040851
vn 0.072827 0.364949 -2.591427
v 0.001905 0.008400 -0.042803
vn -0.297589 3.246203 -5.128029
v -0.026150 0.015340 -0.041962
vn 0.292194 4.962026 -3.549435
v -0.026005 0.024481 -0.033326
vn 0.254259 2.276990 -1.286888
v -0.017148 0.025953 -0.028972
# 67 vertices, 0 vertices normals

f 1//1 3//3 2//2
f 1//1 6//6 5//5
f 9//9 14//14 15//15
f 4//4 18//18 11//11
f 4//4 11//11 3//3
f 9//9 10//10 11//11
f 9//9 18//18 12//12
f 7//7 14//14 13//13
f 7//7 13//13 6//6
f 9//9 12//12 17//17
f 9//9 17//17 13//13
f 1//1 4//4 3//3
f 5//5 17//17 12//12
f 5//5 12//12 16//16
f 1//1 8//8 7//7
f 9//9 15//15 10//10
f 6//6 13//13 17//17
f 6//6 17//17 5//5
f 1//1 7//7 6//6
f 1//1 16//16 4//4
f 9//9 13//13 14//14
f 16//16 12//12 18//18
f 16//16 18//18 4//4
f 1//1 5//5 16//16
f 3//3 11//11 10//10
f 3//3 10//10 2//2
f 9//9 11//11 18//18
f 15//15 8//8 2//2
f 15//15 2//2 10//10
f 8//8 15//15 14//14
f 8//8 14//14 7//7
f 8//8 1//1 2//2
f 32//32 33//33 21//21
f 24//24 25//25 26//26
f 35//35 32//32 21//21
f 23//23 22//22 24//24
f 24//24 22//22 25//25
f 33//33 32//32 31//31
f 34//34 33//33 31//31
f 35//35 39//39 37//37
f 38//38 35//35 37//37
f 36//36 35//35 38//38
f 49//49 42//42 40//40
f 22//22 37//37 20//20
f 20//20 37//37 39//39
f 45//45 29//29 41//41
f 33//33 51//51 50//50
f 62//62 45//45 65//65
f 43//43 46//46 45//45
f 47//47 49//49 40//40
f 56//56 58//58 57//57
f 21//21 19//19 20//20
f 43//43 45//45 41//41
f 44//44 43//43 41//41
f 42//42 44//44 41//41
f 19//19 21//21 50//50
f 41//41 40//40 42//42
f 19//19 25//25 20//20
f 23//23 40//40 27//27
f 40//40 23//23 47//47
f 19//19 26//26 25//25
f 32//32 41//41 31//31
f 33//33 34//34 51//51
f 52//52 54//54 53//53
f 56//56 57//57 54//54
f 52//52 56//56 54//54
f 62//62 29//29 45//45
f 23//23 24//24 48//48
f 35//35 36//36 32//32
f 64//64 60//60 52//52
f 55//55 65//65 63//63
f 29//29 31//31 41//41
f 66//66 46//46 67//67
f 45//45 46//46 66//66
f 24//24 26//26 48//48
f 56//56 52//52 61//61
f 29//29 54//54 57//57
f 62//62 65//65 55//55
f 62//62 55//55 53//53
f 30//30 31//31 29//29
f 62//62 53//53 54//54
f 45//45 66//66 65//65
f 65//65 66//66 63//63
f 36//36 41//41 32//32
f 55//55 63//63 52//52
f 52//52 60//60 61//61
f 63//63 64//64 52//52
f 66//66 67//67 63//63
f 55//55 52//52 53//53
f 27//27 38//38 22//22
f 29//29 57//57 59//59
f 30//30 34//34 31//31
f 22//22 38//38 37//37
f 35//35 21//21 39//39
f 33//33 50//50 21//21
f 36//36 38//38 27//27
f 20//20 39//39 21//21
f 29//29 62//62 54//54
f 28//28 30//30 29//29
f 28//28 29//29 59//59
f 36//36 40//40 41//41
f 48//48 47//47 23//23
f 58//58 59//59 57//57
f 25//25 22//22 20//20
f 27//27 22//22 23//23
f 36//36 27//27 40//40
# 106 faces, 0 coords texture

# End of File
