####
#
# OBJ File Generated by Meshlab
#
####
# Object icub_simple_collision_r_thigh.obj
#
# Vertices: 104
# Faces: 166
#
####
vn -6.283185 0.000000 0.000000
v -0.038500 0.000000 0.224000
vn -2.356202 2.413302 1.612523
v -0.038500 0.025688 0.241164
vn -2.356193 1.612520 -2.413299
v -0.038500 0.017164 0.198312
vn -2.356187 -2.413299 -1.612515
v -0.038500 -0.025688 0.206836
vn -2.356191 -2.846683 0.566239
v -0.038500 -0.030301 0.230027
vn -2.356191 0.566238 2.846681
v -0.038500 0.006027 0.254301
vn 6.283185 -0.000001 0.000006
v 0.038500 0.000000 0.224000
vn 2.356199 2.413302 1.612522
v 0.038500 0.025688 0.241164
vn 2.356189 2.846685 -0.566231
v 0.038500 0.030301 0.217973
vn 2.356199 -0.566236 -2.846678
v 0.038500 -0.006027 0.193699
vn 2.356200 -2.413302 -1.612525
v 0.038500 -0.025688 0.206836
vn 2.356194 -2.846684 0.566231
v 0.038500 -0.030301 0.230027
vn 2.356194 -1.612522 2.413298
v 0.038500 -0.017164 0.249688
vn 2.356191 0.566240 2.846681
v 0.038500 0.006027 0.254301
vn -2.356196 -1.612521 2.413300
v -0.038500 -0.017164 0.249688
vn -2.356190 -0.566236 -2.846683
v -0.038500 -0.006027 0.193699
vn -2.356195 2.846685 -0.566231
v -0.038500 0.030301 0.217973
vn 2.356199 1.612519 -2.413294
v 0.038500 0.017164 0.198312
vn 0.000000 0.000000 6.283185
v 0.000000 0.000000 0.224000
vn 1.612517 2.413304 2.356198
v 0.018526 0.027727 0.224000
vn -2.846681 -0.566241 2.356190
v -0.032706 -0.006506 0.224000
vn -1.612518 -2.413303 2.356196
v -0.018526 -0.027727 0.224000
vn 0.566238 -2.846683 2.356193
v 0.006505 -0.032706 0.224000
vn 2.413302 -1.612518 2.356197
v 0.027727 -0.018526 0.224000
vn 2.846682 0.566242 2.356193
v 0.032706 0.006506 0.224000
vn 0.000005 0.000001 -6.283185
v 0.000000 0.000000 0.000000
vn -2.413300 1.612528 -2.356197
v -0.027727 0.018526 0.000000
vn -2.846669 -0.566232 -2.356193
v -0.032706 -0.006506 0.000000
vn 0.566234 -2.846684 -2.356193
v 0.006506 -0.032706 0.000000
vn 2.413299 -1.612519 -2.356192
v 0.027727 -0.018526 0.000000
vn 2.846683 0.566238 -2.356192
v 0.032706 0.006506 0.000000
vn -2.413301 1.612517 2.356193
v -0.027727 0.018526 0.224000
vn -0.566239 2.846683 2.356193
v -0.006506 0.032706 0.224000
vn 1.612523 2.413299 -2.356196
v 0.018526 0.027727 0.000000
vn -1.612521 -2.413305 -2.356198
v -0.018526 -0.027727 0.000000
vn -0.566232 2.846684 -2.356193
v -0.006505 0.032706 0.000000
vn -6.185980 0.678893 0.068428
v -0.049316 0.000500 0.109888
vn -3.191041 0.683223 -0.125306
v -0.047652 0.013840 0.050020
vn -3.187709 0.008150 -0.071101
v -0.048113 0.000504 0.050412
vn -2.993012 1.290887 0.028277
v -0.040238 0.032878 0.142625
vn -6.209440 0.244619 0.228566
v -0.048152 0.000261 0.172500
vn -4.639044 3.040908 -1.078858
v -0.039464 0.036129 0.050000
vn -2.909730 0.357356 -0.206488
v -0.046265 0.015628 0.172497
vn -2.207847 5.709094 0.216695
v -0.024806 0.046540 0.050000
vn 0.007278 6.214616 0.367525
v 0.000003 0.050020 0.050000
vn -1.477126 3.284235 0.126054
v -0.025047 0.043784 0.124878
vn 2.176328 5.765624 0.380797
v 0.023159 0.046389 0.050000
vn 0.109543 3.619140 0.173323
v 0.000005 0.046817 0.119331
vn 1.127165 3.327186 0.170400
v 0.022717 0.042637 0.126177
vn 0.596638 2.905577 0.205637
v 0.013758 0.050816 0.023982
vn -1.943834 2.569489 0.057181
v -0.033364 0.041982 0.043955
vn -0.051047 3.029833 0.190301
v -0.000004 0.051215 0.028673
vn -0.497002 3.037268 0.266945
v -0.018699 0.048685 0.036966
vn 1.475903 2.511399 0.100318
v 0.027150 0.046613 0.021110
vn 4.412228 4.257290 0.141608
v 0.037649 0.037178 0.050000
vn 2.442617 1.767277 -0.063886
v 0.039068 0.035640 0.020204
vn 5.802624 1.991297 0.027934
v 0.046279 0.022993 0.050000
vn 6.195784 0.240030 -0.190384
v 0.049793 0.000500 0.049999
vn 3.146993 0.074778 -0.172580
v 0.047899 0.000500 0.020599
vn 3.024468 0.772685 -0.137302
v 0.045668 0.020129 0.020415
vn 2.718063 1.806845 -0.089023
v 0.038465 0.034942 0.140243
vn 6.029816 1.015004 -0.213511
v 0.051881 0.000628 0.109997
vn -2.425756 -0.070322 0.192985
v -0.046810 0.000500 0.189467
vn 6.213181 0.102926 0.096094
v 0.053082 0.000672 0.174998
vn 2.895990 0.649976 -0.051003
v 0.051182 0.013809 0.174990
vn 2.420159 -0.092330 0.100007
v 0.052488 0.000573 0.189381
vn -0.004575 -6.206384 0.302118
v -0.000908 -0.065286 0.162002
vn 2.740380 -5.344665 0.775019
v 0.027906 -0.058361 0.175005
vn 0.081820 -3.169914 0.484297
v -0.000000 -0.063064 0.189006
vn 1.662518 -5.953110 0.302991
v 0.018752 -0.062767 0.162002
vn -1.619168 -5.963408 0.376099
v -0.018772 -0.063060 0.162003
vn -1.289167 -2.857092 0.600589
v -0.019966 -0.058624 0.189695
vn -3.325933 -4.854322 1.053155
v -0.027901 -0.058222 0.175006
vn 1.791062 -2.353417 -0.304461
v 0.027400 -0.054520 0.021073
vn -5.044809 -3.254870 0.735486
v -0.039215 -0.046469 0.175004
vn -2.501303 -1.739984 0.464402
v -0.037231 -0.044797 0.191575
vn -6.049484 -1.276617 0.519600
v -0.045860 -0.027328 0.175004
vn -2.863124 -0.604276 0.339798
v -0.044062 -0.025276 0.192942
vn 0.142599 -3.034031 -0.192217
v 0.000000 -0.062827 0.028680
vn 3.211409 -5.072833 -0.115570
v 0.031178 -0.057795 0.108574
vn 2.669482 -1.479311 -0.286841
v 0.039913 -0.039860 0.020202
vn -2.780636 -5.291763 -0.003767
v -0.029865 -0.060731 0.109547
vn -6.032172 -1.534240 0.014813
v -0.046449 -0.035644 0.109808
vn -6.247796 -0.471237 -0.002800
v -0.049065 -0.015874 0.108946
vn -5.071287 -3.353223 0.042745
v -0.041112 -0.049935 0.109824
vn 0.271357 -6.122529 -0.103533
v 0.000621 -0.066104 0.108931
vn 4.573904 -4.043740 -0.365307
v 0.035619 -0.050392 0.050000
vn 4.904231 -3.684691 0.243780
v 0.040668 -0.047299 0.175004
vn 5.956120 -1.685249 0.125374
v 0.049665 -0.028331 0.175004
vn 2.074588 -2.255069 0.465472
v 0.036631 -0.050328 0.190900
vn 2.775572 -0.876902 0.162867
v 0.048853 -0.028915 0.192806
vn 5.358225 -3.001062 -0.120212
v 0.043695 -0.043410 0.109806
vn 0.816742 -2.873582 -0.213931
v 0.014063 -0.060774 0.023897
vn 5.896392 -1.847387 -0.330327
v 0.045920 -0.030872 0.050000
vn 3.078049 -0.596134 -0.215629
v 0.046063 -0.021375 0.020444
vn -3.102939 -0.343167 -0.108063
v -0.047586 -0.015638 0.050125
vn -3.190684 -1.316022 -0.227212
v -0.042637 -0.039879 0.050000
vn -4.342625 -4.244286 -0.533381
v -0.034308 -0.053306 0.050000
vn -2.075691 -5.762692 -0.405339
v -0.020949 -0.061505 0.050000
vn -1.999844 -2.422734 -0.337084
v -0.032969 -0.053721 0.043766
vn 0.161126 -6.171610 -0.261098
v 0.000002 -0.064519 0.049995
vn -0.773149 -3.026976 -0.273080
v -0.017838 -0.061224 0.036560
vn 2.258001 -5.676872 -0.243718
v 0.020805 -0.060801 0.050000
vn 6.131907 -1.104514 -0.157869
v 0.050641 -0.021160 0.110394
# 104 vertices, 0 vertices normals

f 7//7 9//9 8//8
f 7//7 11//11 10//10
f 7//7 14//14 13//13
f 19//19 21//21 22//22
f 24//24 23//23 29//29
f 24//24 29//29 30//30
f 19//19 20//20 33//33
f 26//26 28//28 27//27
f 26//26 30//30 29//29
f 38//38 39//39 37//37
f 40//40 38//38 37//37
f 41//41 40//40 37//37
f 38//38 40//40 42//42
f 43//43 40//40 41//41
f 85//85 75//75 83//83
f 61//61 57//57 55//55
f 49//49 61//61 47//47
f 61//61 55//55 47//47
f 45//45 46//46 48//48
f 44//44 46//46 45//45
f 49//49 47//47 48//48
f 50//50 52//52 45//45
f 50//50 45//45 47//47
f 51//51 42//42 44//44
f 52//52 44//44 45//45
f 53//53 44//44 52//52
f 51//51 44//44 53//53
f 51//51 38//38 42//42
f 54//54 47//47 55//55
f 50//50 47//47 54//54
f 56//56 55//55 57//57
f 54//54 55//55 56//56
f 59//59 57//57 58//58
f 60//60 57//57 59//59
f 56//56 57//57 60//60
f 42//42 40//40 44//44
f 45//45 48//48 47//47
f 102//102 79//79 101//101
f 75//75 76//76 77//77
f 77//77 76//76 78//78
f 81//81 87//87 74//74
f 95//95 94//94 81//81
f 74//74 87//87 103//103
f 84//84 41//41 37//37
f 83//83 75//75 77//77
f 83//83 77//77 84//84
f 82//82 86//86 71//71
f 74//74 103//103 93//93
f 93//93 103//103 79//79
f 90//90 68//68 88//88
f 91//91 88//88 89//89
f 90//90 88//88 91//91
f 80//80 70//70 86//86
f 104//104 64//64 89//89
f 92//92 89//89 88//88
f 66//66 89//89 64//64
f 81//81 94//94 87//87
f 94//94 104//104 92//92
f 102//102 99//99 100//100
f 82//82 73//73 75//75
f 103//103 101//101 79//79
f 94//94 92//92 87//87
f 95//95 58//58 94//94
f 84//84 77//77 41//41
f 77//77 78//78 41//41
f 91//91 89//89 66//66
f 82//82 99//99 86//86
f 44//44 40//40 46//46
f 61//61 65//65 62//62
f 65//65 64//64 62//62
f 61//61 62//62 58//58
f 61//61 58//58 57//57
f 43//43 41//41 63//63
f 19//19 33//33 32//32
f 19//19 32//32 21//21
f 19//19 23//23 24//24
f 19//19 24//24 25//25
f 62//62 104//104 58//58
f 87//87 80//80 103//103
f 26//26 31//31 30//30
f 25//25 24//24 30//30
f 25//25 30//30 31//31
f 23//23 22//22 35//35
f 23//23 35//35 29//29
f 26//26 29//29 35//35
f 22//22 21//21 28//28
f 22//22 28//28 35//35
f 33//33 20//20 34//34
f 33//33 34//34 36//36
f 26//26 36//36 34//34
f 58//58 104//104 94//94
f 19//19 25//25 20//20
f 26//26 34//34 31//31
f 20//20 25//25 31//31
f 20//20 31//31 34//34
f 32//32 33//33 36//36
f 32//32 36//36 27//27
f 21//21 32//32 27//27
f 21//21 27//27 28//28
f 96//96 83//83 84//84
f 97//97 85//85 83//83
f 97//97 83//83 96//96
f 71//71 73//73 82//82
f 7//7 12//12 11//11
f 98//98 85//85 97//97
f 4//4 16//16 10//10
f 4//4 10//10 11//11
f 7//7 10//10 18//18
f 6//6 15//15 13//13
f 6//6 13//13 14//14
f 65//65 66//66 64//64
f 7//7 8//8 14//14
f 26//26 27//27 36//36
f 71//71 67//67 69//69
f 7//7 13//13 12//12
f 3//3 17//17 9//9
f 3//3 9//9 18//18
f 7//7 18//18 9//9
f 26//26 35//35 28//28
f 2//2 6//6 14//14
f 2//2 14//14 8//8
f 1//1 6//6 2//2
f 1//1 15//15 6//6
f 1//1 2//2 17//17
f 1//1 5//5 15//15
f 15//15 5//5 12//12
f 15//15 12//12 13//13
f 19//19 22//22 23//23
f 1//1 16//16 4//4
f 100//100 99//99 98//98
f 16//16 3//3 18//18
f 16//16 18//18 10//10
f 80//80 68//68 70//70
f 73//73 72//72 75//75
f 1//1 3//3 16//16
f 102//102 101//101 99//99
f 1//1 17//17 3//3
f 87//87 92//92 80//80
f 82//82 98//98 99//99
f 86//86 67//67 71//71
f 5//5 4//4 11//11
f 5//5 11//11 12//12
f 1//1 4//4 5//5
f 17//17 2//2 8//8
f 17//17 8//8 9//9
f 64//64 104//104 62//62
f 95//95 59//59 58//58
f 96//96 84//84 39//39
f 39//39 84//84 37//37
f 104//104 89//89 92//92
f 69//69 67//67 70//70
f 72//72 71//71 69//69
f 75//75 72//72 76//76
f 80//80 88//88 68//68
f 86//86 99//99 101//101
f 92//92 88//88 80//80
f 82//82 75//75 85//85
f 71//71 72//72 73//73
f 103//103 80//80 101//101
f 41//41 78//78 63//63
f 86//86 70//70 67//67
f 86//86 101//101 80//80
f 98//98 82//82 85//85
f 69//69 70//70 68//68
f 69//69 68//68 90//90
f 100//100 98//98 97//97
# 166 faces, 0 coords texture

# End of File
